<svg xmlns="http://www.w3.org/2000/svg" width="18" height="18" fill="none" viewBox="0 0 20 20"><path stroke="#fff" stroke-linecap="round" stroke-linejoin="round" d="M12.15 4.44a4.31 4.31 0 0 1 3.403 3.398M12.15 1a7.76 7.76 0 0 1 4.624 2.216A7.74 7.74 0 0 1 19 7.83m-.862 6.864v2.58a1.72 1.72 0 0 1-1.171 1.636 1.7 1.7 0 0 1-.707.084 17.1 17.1 0 0 1-7.437-2.64 16.8 16.8 0 0 1-5.17-5.161 17 17 0 0 1-2.646-7.457 1.72 1.72 0 0 1 1.02-1.728c.219-.097.456-.147.695-.147h2.585a1.725 1.725 0 0 1 1.724 1.48c.109.825.311 1.636.603 2.416a1.72 1.72 0 0 1-.388 1.815L6.152 8.663a13.8 13.8 0 0 0 5.17 5.16l1.094-1.091a1.72 1.72 0 0 1 1.819-.387 11 11 0 0 0 2.421.602 1.724 1.724 0 0 1 1.482 1.746"/></svg>