<svg id="css" xmlns="http://www.w3.org/2000/svg" width="28" height="29" viewBox="0 0 28 29" fill="none">
  <path fill-rule="evenodd" clip-rule="evenodd" d="M0.14208 1.11219C0.240003 1.01937 0.376128 0.966797 0.518519 0.966797H27.4815C27.6268 0.966797 27.7654 1.02154 27.8636 1.1177C27.9618 1.21386 28.0106 1.3426 27.9981 1.47258L27.5352 6.265C27.5196 6.42649 27.4115 6.56907 27.25 6.64141L18.4903 10.5635L26.4578 10.8096C26.6009 10.814 26.7355 10.8713 26.8299 10.968C26.9243 11.0646 26.9699 11.192 26.9561 11.3199L25.3938 25.7487C25.3731 25.9407 25.2225 26.1013 25.0154 26.1525L13.964 28.8837C13.8742 28.9059 13.7793 28.9059 13.6895 28.8839L2.58028 26.1527C2.36903 26.1008 2.21691 25.9352 2.20021 25.7392L1.56374 18.2671C1.55273 18.1378 1.60225 18.0103 1.70038 17.9152C1.79851 17.8201 1.93636 17.766 2.08075 17.766H7.69321C7.97958 17.766 8.21173 17.9745 8.21173 18.2316V21.6856L13.8218 23.0054L19.0748 21.6823L19.6745 16.4298H1.79145C1.51968 16.4298 1.29402 16.2414 1.2743 15.998L0.869274 10.9994C0.854331 10.815 0.962355 10.6402 1.1445 10.5539L9.30195 6.69034H0.807821C0.532356 6.69034 0.304972 6.49694 0.290063 6.24998L0.000760794 1.45755C-0.00694561 1.32989 0.0441573 1.205 0.14208 1.11219ZM1.0659 1.89792L1.299 5.75922H11.3963C11.6347 5.75922 11.8423 5.90514 11.8996 6.11289C11.9569 6.32065 11.849 6.5367 11.6382 6.63656L1.92817 11.2354L2.27361 15.4987H20.2489C20.3956 15.4987 20.5355 15.5545 20.6338 15.6523C20.7321 15.75 20.7797 15.8806 20.7647 16.0117L20.0704 22.0924C20.0487 22.2826 19.8997 22.4415 19.6947 22.4932L13.9665 23.9361C13.8778 23.9584 13.7841 23.9591 13.695 23.9382L7.56179 22.4953C7.33373 22.4416 7.17469 22.2566 7.17469 22.0449V18.6972H2.64044L3.20638 25.3412L13.8261 27.952L24.3962 25.3398L25.8705 11.7231L16.4123 11.431C16.1752 11.4236 15.9739 11.2727 15.9235 11.0646C15.873 10.8564 15.9864 10.6441 16.1987 10.549L26.5271 5.92459L26.916 1.89792H1.0659Z" fill="#030303"/>
</svg>