<svg id="figma" xmlns="http://www.w3.org/2000/svg" width="20" height="28" viewBox="0 0 20 28" fill="none">
  <path fill-rule="evenodd" clip-rule="evenodd" d="M4.91078 8.98229C3.48006 8.9125 2.51744 8.369 1.92106 7.63514C1.31556 6.89005 1.05103 5.90319 1.1119 4.89912C1.23514 2.86629 2.6498 0.976336 4.89916 0.976336H13.9574C13.9575 0.976336 13.9576 0.976336 13.9576 0.488168L13.9574 0.976336C16.5432 0.976336 18.14 2.94208 18.2936 4.94356C18.3699 5.93803 18.0859 6.91554 17.4073 7.65389C16.7327 8.38799 15.622 8.93507 13.9509 8.98229H4.91078ZM0.13967 4.8399C0.284269 2.45478 1.98637 0 4.89916 0H13.9574C13.9575 0 13.9576 0 13.9576 0.488168L13.9574 0C17.1186 0 19.0774 2.42781 19.2647 4.86868C19.3589 6.09539 19.0098 7.35125 18.1237 8.31538C17.2347 9.2828 15.8514 9.90683 13.9709 9.95844L13.9643 9.95862H4.88775L4.87636 9.95809C3.19649 9.87918 1.95892 9.22762 1.16588 8.25176C0.380402 7.28521 0.0666219 6.0448 0.13967 4.8399Z" fill="#030303"/>
  <path fill-rule="evenodd" clip-rule="evenodd" d="M9.08765 9.47057V0.488281H10.0617V9.47057H9.08765Z" fill="#030303"/>
  <path fill-rule="evenodd" clip-rule="evenodd" d="M4.54878 8.98242H10.0617V19.0387H4.36594L4.32037 19.0299C1.55657 18.4971 0.0611563 16.3616 0.0511977 14.1518C0.0412072 11.9348 1.52128 9.72043 4.49206 8.99625L4.54878 8.98242ZM4.66653 9.95876C2.15042 10.5946 1.01742 12.4179 1.02521 14.1474C1.03305 15.8853 2.1881 17.6051 4.45973 18.0623H9.08767V9.95876H4.66653Z" fill="#030303"/>
  <path fill-rule="evenodd" clip-rule="evenodd" d="M0.247387 21.6008C0.746697 20.0728 2.02303 18.6613 4.2913 18.0776L4.53348 19.0233C2.57865 19.5263 1.566 20.7021 1.17302 21.9047C0.769006 23.1411 1.01674 24.3962 1.57404 25.0745L1.58945 25.0932L1.60293 25.1134C3.19071 27.4932 6.65775 27.8217 8.48965 25.111L8.49089 25.1092C8.70066 24.8018 8.86984 24.4395 8.97625 23.5154C9.08496 22.5712 9.12308 21.0863 9.08772 18.5573L10.0616 18.5436C10.097 21.0718 10.0606 22.6137 9.94385 23.6273C9.82493 24.6602 9.61805 25.1865 9.2955 25.6595C7.04149 28.9936 2.74501 28.5541 0.8065 25.6759C0.0124728 24.6926 -0.23771 23.0853 0.247387 21.6008Z" fill="#030303"/>
  <path fill-rule="evenodd" clip-rule="evenodd" d="M14.1526 17.6719C16.143 17.6719 17.7565 16.0546 17.7565 14.0595C17.7565 12.0644 16.143 10.447 14.1526 10.447C12.1623 10.447 10.5487 12.0644 10.5487 14.0595C10.5487 16.0546 12.1623 17.6719 14.1526 17.6719ZM14.1526 18.6483C16.6809 18.6483 18.7305 16.5938 18.7305 14.0595C18.7305 11.5252 16.6809 9.4707 14.1526 9.4707C11.6243 9.4707 9.57471 11.5252 9.57471 14.0595C9.57471 16.5938 11.6243 18.6483 14.1526 18.6483Z" fill="#030303"/>
</svg>