<svg id="html" xmlns="http://www.w3.org/2000/svg" width="28" height="29" viewBox="0 0 28 29" fill="none">
<path fill-rule="evenodd" clip-rule="evenodd" d="M0.135787 1.11337C0.233256 1.01996 0.370688 0.966797 0.514708 0.966797H27.4853C27.6285 0.966797 27.7653 1.01939 27.8627 1.11193C27.9601 1.20448 28.0093 1.32859 27.9985 1.45444L27.5899 6.21776C27.5696 6.45427 27.3459 6.63705 27.0766 6.63705H7.25784L7.58868 10.4934H26.668C26.812 10.4934 26.9494 10.5466 27.0468 10.6399C27.1443 10.7333 27.1929 10.8583 27.1809 10.9847L25.7798 25.7406C25.7619 25.9295 25.6126 26.0886 25.4054 26.1396L14.2552 28.8837C14.1649 28.9059 14.0693 28.906 13.9789 28.8838L2.7704 26.1397C2.56159 26.0886 2.4115 25.9278 2.39499 25.7374L1.75283 18.3335C1.74191 18.2076 1.79107 18.0834 1.88848 17.9908C1.98589 17.8982 2.12272 17.8455 2.26604 17.8455H7.87032C8.15459 17.8455 8.38503 18.0485 8.38503 18.299V21.5831L14.1117 23.0546L19.4751 21.58L20.0298 16.5261H1.91578C1.64826 16.5261 1.42534 16.3456 1.40289 16.1107L0.00181846 1.45833C-0.0102715 1.33189 0.0383181 1.20678 0.135787 1.11337ZM1.0746 1.87373L2.38895 15.6192H20.5967C20.7418 15.6192 20.8802 15.6732 20.9778 15.7678C21.0753 15.8625 21.123 15.989 21.109 16.1163L20.4669 21.9669C20.4469 22.1484 20.3055 22.3018 20.1079 22.3561L14.2701 23.9612C14.1734 23.9877 14.0699 23.9886 13.9726 23.9636L7.72621 22.3586C7.5066 22.3021 7.35562 22.1248 7.35562 21.9232V18.7524H2.82158L3.3939 25.3511L14.1164 27.9762L24.7838 25.3509L26.1084 11.4004H7.11141C6.84219 11.4004 6.61846 11.2176 6.59817 10.9811L6.18952 6.21776C6.17873 6.09191 6.22794 5.96779 6.32535 5.87525C6.42275 5.78271 6.55951 5.73011 6.70276 5.73011H26.5994L26.9302 1.87373H1.0746Z" fill="#030303"/>
</svg>