<svg id="js" xmlns="http://www.w3.org/2000/svg" width="28" height="23" viewBox="0 0 28 23" fill="none">
  <path fill-rule="evenodd" clip-rule="evenodd" d="M2.07365 22.365L2.05732 22.3659C1.519 22.394 0.96553 22.2548 0.554861 21.8161C0.186463 21.4426 0 20.9703 0 20.4514C0 20.0232 0.145982 19.6344 0.4029 19.3068C0.731653 18.8574 1.2266 18.6817 1.69857 18.6523C1.69873 18.6523 1.6989 18.6523 1.69906 18.6523L2.58524 18.5954C3.3928 18.5313 3.90819 18.2688 4.24486 17.887C4.59461 17.4718 4.81693 16.8574 4.81693 15.9466V2.11647C4.81693 1.59725 4.93981 1.03794 5.3568 0.623132C5.77178 0.210327 6.31377 0.0573875 6.85798 0.0573875C7.38493 0.0573875 7.92774 0.201865 8.33081 0.622933C8.76151 1.03153 8.89903 1.58821 8.89903 2.11647V15.9753C8.89903 17.1646 8.6892 18.2421 8.23876 19.1831L8.23702 19.1867L8.23525 19.1903C7.7752 20.1285 7.07908 20.8665 6.16496 21.3903C5.27751 21.9099 4.2225 22.1942 3.03314 22.2782L2.07365 22.365ZM2.96405 21.427C4.06012 21.3505 4.98313 21.0922 5.73307 20.6523C6.50224 20.2123 7.07912 19.6002 7.4637 18.8159C7.84829 18.0125 8.04058 17.0656 8.04058 15.9753V2.11647C8.04058 1.71476 7.93482 1.41826 7.7233 1.22698C7.531 1.01656 7.24256 0.911352 6.85798 0.911352C6.47339 0.911352 6.17534 1.01656 5.96382 1.22698C5.77153 1.41826 5.67538 1.71476 5.67538 2.11647V15.9466C5.67538 16.9987 5.41578 17.8308 4.89659 18.4429C4.3774 19.0359 3.62746 19.3707 2.64677 19.4472L1.75261 19.5046C1.44494 19.5237 1.22381 19.6289 1.0892 19.8202C0.935366 20.0115 0.858449 20.2219 0.858449 20.4514C0.858449 20.7575 0.96421 21.0157 1.17573 21.2261C1.36802 21.4366 1.64685 21.5322 2.0122 21.5131L2.96405 21.427ZM14.2539 21.5054L14.2504 21.504C13.4538 21.1912 12.7238 20.7922 12.0639 20.3051L12.0621 20.3038L12.0603 20.3025C11.7418 20.0648 11.472 19.7675 11.3035 19.3988L11.2849 19.358L11.2706 19.3155C11.1542 18.9679 11.1152 18.6021 11.1827 18.2328L11.1877 18.2054L11.1945 18.1784C11.2798 17.8389 11.4318 17.5198 11.6697 17.2493L11.6886 17.2279L11.7088 17.2078C12.0008 16.9173 12.3693 16.7406 12.7861 16.703C13.2411 16.6618 13.6572 16.8135 14.006 17.027L14.0303 17.0419L14.0536 17.0583C14.8421 17.6161 15.6768 18.0222 16.5599 18.2814C17.4512 18.5239 18.476 18.6506 19.6421 18.6506C21.2967 18.6506 22.3479 18.3436 22.9545 17.8812C23.5922 17.3906 23.8891 16.7878 23.8891 16.004C23.8891 15.3736 23.6786 14.9658 23.296 14.6684L23.2843 14.6593L23.2729 14.6498C22.8454 14.2931 22.0102 13.9353 20.626 13.6561M20.6253 13.656L17.6218 13.0527L17.6175 13.0517C15.7236 12.6509 14.1969 11.9793 13.1355 10.9682L13.1287 10.9618L13.1221 10.9553C12.0495 9.88828 11.5439 8.48999 11.5439 6.85085C11.5439 5.83509 11.7508 4.89059 12.1805 4.03403C12.6009 3.17717 13.1891 2.44813 13.9393 1.85413C14.6855 1.24417 15.5618 0.785963 16.5544 0.470825C17.5545 0.153313 18.644 0 19.8152 0C21.1057 0 22.3203 0.183069 23.4525 0.557347C24.6061 0.913213 25.6506 1.45885 26.5799 2.19418L26.5845 2.19783L26.5891 2.20156C26.9073 2.46058 27.1537 2.78799 27.2889 3.18421C27.4211 3.55247 27.4398 3.93937 27.3352 4.32099L27.3323 4.33138L27.3292 4.34169C27.2269 4.68108 27.0377 4.97422 26.7752 5.20893C26.4721 5.49935 26.0937 5.6325 25.7162 5.66437C25.2404 5.70642 24.8079 5.52724 24.4564 5.30242L24.4303 5.28575L24.4055 5.26725C23.7076 4.74657 22.9986 4.3844 22.2781 4.1677L22.2694 4.16508L22.2608 4.16228C21.5315 3.92609 20.7093 3.80253 19.7864 3.80253C18.8531 3.80253 18.0853 3.94264 17.4622 4.19622C16.8687 4.44548 16.4257 4.79783 16.1038 5.24818C15.8113 5.66474 15.6548 6.15893 15.6548 6.76477C15.6548 7.4954 15.8685 7.98206 16.2239 8.3261C16.6299 8.70001 17.3756 9.04833 18.5942 9.28354L18.6013 9.28491L21.6052 9.91704C21.6057 9.91715 21.6062 9.91726 21.6068 9.91736C23.6117 10.3322 25.2103 10.9848 26.294 11.9472C27.4479 12.9347 28 14.2833 28 15.8892C28 16.8511 27.8013 17.7548 27.3943 18.5869C26.9889 19.4159 26.405 20.127 25.6563 20.7185L25.6502 20.7233L25.6439 20.7281C24.8932 21.2992 24.0055 21.7248 22.9976 22.0173C21.9828 22.3117 20.8615 22.4531 19.6421 22.4531C18.6894 22.4531 17.7545 22.3724 16.8382 22.2104C15.924 22.0487 15.063 21.8149 14.2574 21.5067L14.2539 21.5054M25.7282 12.5895C24.8052 11.7669 23.3726 11.1548 21.4305 10.7531L18.4307 10.1219C17.1423 9.8732 16.2097 9.48106 15.6328 8.94545C15.0752 8.40985 14.7964 7.68295 14.7964 6.76477C14.7964 5.99961 14.9983 5.33011 15.4021 4.75624C15.8251 4.16325 16.402 3.71372 17.1327 3.40766C17.8827 3.1016 18.7672 2.94857 19.7864 2.94857C20.7863 2.94857 21.6997 3.08247 22.5265 3.35027C23.3534 3.59895 24.1514 4.01022 24.9206 4.58408C25.1898 4.75624 25.4301 4.83276 25.6417 4.81363C25.8724 4.7945 26.0551 4.71798 26.1897 4.58408C26.3435 4.45018 26.4493 4.28759 26.507 4.0963C26.5647 3.88588 26.5551 3.67546 26.4781 3.46505C26.4012 3.2355 26.257 3.03465 26.0455 2.86249C25.1994 2.19298 24.2475 1.69563 23.1899 1.37044C22.1516 1.02612 21.0266 0.853965 19.8152 0.853965C18.7191 0.853965 17.7192 0.997431 16.8154 1.28436C15.9117 1.5713 15.1329 1.98257 14.4791 2.51817C13.8253 3.03465 13.3157 3.6659 12.9504 4.41192C12.585 5.13882 12.4023 5.95179 12.4023 6.85085C12.4023 8.30464 12.8446 9.47149 13.7291 10.3514C14.6329 11.2122 15.9886 11.8339 17.7961 12.2165L20.7959 12.819C22.2189 13.106 23.2284 13.4981 23.8245 13.9955C24.4398 14.4737 24.7475 15.1432 24.7475 16.004C24.7475 17.0561 24.3245 17.9073 23.4784 18.5577C22.6515 19.1889 21.3728 19.5046 19.6421 19.5046C18.4115 19.5046 17.3058 19.3707 16.3251 19.1028C15.3444 18.8159 14.4214 18.3664 13.5561 17.7543C13.3061 17.6012 13.0753 17.5343 12.8638 17.5534C12.6523 17.5725 12.4696 17.6586 12.3158 17.8117C12.1812 17.9647 12.085 18.156 12.0273 18.3855C11.9889 18.5959 12.0081 18.8159 12.085 19.0455C12.1812 19.2559 12.3446 19.4472 12.5754 19.6193C13.1715 20.0593 13.8349 20.4227 14.5656 20.7097C15.3156 20.9966 16.1232 21.2166 16.9885 21.3696C17.8538 21.5226 18.7384 21.5992 19.6421 21.5992C20.7959 21.5992 21.8343 21.4653 22.7573 21.1975C23.6803 20.9296 24.4687 20.5471 25.1225 20.0497C25.7763 19.5332 26.2762 18.9211 26.6224 18.2134C26.9685 17.5056 27.1416 16.7309 27.1416 15.8892C27.1416 14.4928 26.6704 13.3929 25.7282 12.5895Z" fill="#030303"/>
</svg>