<svg id="linkedin" xmlns="http://www.w3.org/2000/svg" width="29" height="27" viewBox="0 0 29 27" fill="none">
  <path d="M19.7723 8.69568C21.9184 8.69568 23.9766 9.52722 25.4942 11.0074C27.0117 12.4875 27.8642 14.4951 27.8642 16.5883V25.7964H22.4696V16.5883C22.4696 15.8906 22.1855 15.2214 21.6796 14.728C21.1738 14.2346 20.4877 13.9574 19.7723 13.9574C19.057 13.9574 18.3709 14.2346 17.865 14.728C17.3592 15.2214 17.075 15.8906 17.075 16.5883V25.7964H11.6804V16.5883C11.6804 14.4951 12.533 12.4875 14.0505 11.0074C15.568 9.52722 17.6262 8.69568 19.7723 8.69568Z" stroke="#E6EAE9" stroke-width="0.876374" stroke-linecap="round" stroke-linejoin="round"/>
  <path d="M6.28572 10.011H0.891113V25.7963H6.28572V10.011Z" stroke="#E6EAE9" stroke-width="0.876374" stroke-linecap="round" stroke-linejoin="round"/>
  <path d="M3.58842 6.06487C5.0781 6.06487 6.28572 4.88698 6.28572 3.43398C6.28572 1.98099 5.0781 0.803101 3.58842 0.803101C2.09874 0.803101 0.891113 1.98099 0.891113 3.43398C0.891113 4.88698 2.09874 6.06487 3.58842 6.06487Z" stroke="#E6EAE9" stroke-width="0.876374" stroke-linecap="round" stroke-linejoin="round"/>
</svg>