<svg id="node" xmlns="http://www.w3.org/2000/svg" width="36" height="20" viewBox="0 0 36 20" fill="none">
  <path fill-rule="evenodd" clip-rule="evenodd" d="M0.445817 19.4563L0.434157 19.4429C0.112236 19.0721 0 18.6004 0 18.1356V1.83881C0 1.37397 0.112236 0.902243 0.434158 0.531485C0.746754 0.171469 1.16073 0 1.60943 0C1.91301 0 2.29455 0.0507261 2.60112 0.29879C2.83312 0.463094 3.03123 0.705407 3.20036 0.952364L11.9676 13.1844V1.78757C11.9676 1.33781 12.0813 0.874093 12.4134 0.518201C12.7496 0.139674 13.2012 0 13.6504 0C14.0884 0 14.5322 0.143835 14.8515 0.532351C15.1735 0.886334 15.2843 1.34375 15.2843 1.78757V18.1612C15.2843 18.601 15.1844 19.0462 14.9019 19.4096C14.5994 19.8031 14.1689 19.9488 13.7483 19.9488C13.4135 19.9488 13.0614 19.8795 12.7569 19.6669C12.519 19.5008 12.3079 19.2682 12.1186 19.0105L12.1157 19.0066L3.34122 6.73625V18.1356C3.34122 18.6004 3.22898 19.0721 2.90706 19.4429L2.8954 19.4563L2.88315 19.4692C2.5487 19.8193 2.11438 19.9488 1.68285 19.9488C1.24804 19.9488 0.799575 19.8267 0.458073 19.4692L0.445817 19.4563ZM2.61284 4.44526L12.6959 18.5455C12.8591 18.7676 13.0141 18.9299 13.1609 19.0324C13.3078 19.1349 13.5036 19.1861 13.7483 19.1861C14.0094 19.1861 14.2051 19.1007 14.3357 18.9299C14.4825 18.742 14.5559 18.4858 14.5559 18.1612V1.78757C14.5559 1.463 14.4743 1.2153 14.3112 1.04448C14.1643 0.856567 13.9441 0.762614 13.6504 0.762614C13.3404 0.762614 13.1038 0.856567 12.9407 1.04448C12.7775 1.2153 12.6959 1.463 12.6959 1.78757V15.4712L2.61284 1.40321C2.44968 1.16405 2.30284 1.00177 2.17232 0.916356C2.05811 0.813861 1.87048 0.762614 1.60943 0.762614C1.34838 0.762614 1.13627 0.856567 0.973114 1.04448C0.809957 1.23238 0.728379 1.49716 0.728379 1.83881V18.1356C0.728379 18.4772 0.809957 18.742 0.973114 18.9299C1.13627 19.1007 1.37285 19.1861 1.68285 19.1861C1.97653 19.1861 2.20495 19.1007 2.36811 18.9299C2.53126 18.742 2.61284 18.4772 2.61284 18.1356V4.44526ZM17.4527 19.9213L17.4389 19.9221C16.9821 19.9472 16.5125 19.8229 16.1641 19.4311C15.8515 19.0976 15.6933 18.6758 15.6933 18.2124C15.6933 17.83 15.8171 17.4828 16.0351 17.1903C16.3141 16.789 16.734 16.6321 17.1344 16.6058C17.1346 16.6057 17.1347 16.6057 17.1349 16.6057L17.8868 16.5549C18.572 16.4978 19.0093 16.2633 19.2949 15.9224C19.5917 15.5515 19.7803 15.0029 19.7803 14.1895V1.83881C19.7803 1.37513 19.8846 0.875663 20.2384 0.505225C20.5905 0.136579 21.0504 0 21.5121 0C21.9593 0 22.4198 0.129023 22.7618 0.505048C23.1273 0.869935 23.2439 1.36706 23.2439 1.83881V14.2151C23.2439 15.2772 23.0659 16.2394 22.6837 17.0798L22.6822 17.083L22.6807 17.0862C22.2904 17.9241 21.6997 18.5831 20.9241 19.0509C20.1711 19.5149 19.276 19.7687 18.2668 19.8438L17.4527 19.9213ZM18.2082 19.0836C19.1382 19.0153 19.9214 18.7847 20.5577 18.3918C21.2103 17.9989 21.6998 17.4523 22.0261 16.7519C22.3524 16.0344 22.5156 15.1888 22.5156 14.2151V1.83881C22.5156 1.48008 22.4258 1.2153 22.2464 1.04448C22.0832 0.856567 21.8385 0.762614 21.5121 0.762614C21.1858 0.762614 20.9329 0.856567 20.7535 1.04448C20.5903 1.2153 20.5087 1.48008 20.5087 1.83881V14.1895C20.5087 15.129 20.2885 15.8721 19.8479 16.4188C19.4074 16.9483 18.7711 17.2473 17.939 17.3156L17.1803 17.3668C16.9193 17.3839 16.7316 17.4779 16.6174 17.6487C16.4869 17.8195 16.4216 18.0074 16.4216 18.2124C16.4216 18.4858 16.5114 18.7164 16.6909 18.9043C16.854 19.0922 17.0906 19.1776 17.4006 19.1605L18.2082 19.0836ZM28.1255 19.6968L28.1237 19.6963C27.3009 19.4857 26.534 19.1218 25.8263 18.6088L25.8247 18.6077L25.8232 18.6066C25.5774 18.4264 25.3632 18.189 25.2327 17.8816L25.2271 17.8684L25.222 17.8551C25.1206 17.5897 25.0691 17.3008 25.1009 17.0008L25.1044 16.9679L25.1106 16.9354C25.1651 16.6504 25.2801 16.3821 25.4676 16.1531L25.4858 16.1308L25.5056 16.1101C25.7181 15.8876 25.9871 15.7345 26.3006 15.6905C26.6548 15.6252 26.9899 15.7148 27.2764 15.8648L27.3051 15.8798L27.3324 15.8974C27.9188 16.2752 28.4643 16.5316 28.9699 16.68C29.5164 16.8183 30.0503 16.8861 30.5727 16.8861C31.4332 16.8861 31.9554 16.7165 32.2502 16.4929C32.533 16.2786 32.6588 16.0221 32.6588 15.6501C32.6588 15.3646 32.5765 15.2149 32.453 15.1059L32.4446 15.0986L32.4365 15.0909C32.2621 14.9275 31.9145 14.743 31.2976 14.6013L29.0747 14.0898C27.9664 13.8496 27.0455 13.4159 26.403 12.7215L26.3988 12.717L26.3948 12.7124C25.7583 12.0016 25.4636 11.0953 25.4636 10.0641C25.4636 9.15917 25.6868 8.34016 26.1634 7.64594L26.1646 7.6442L26.1658 7.64248C26.6464 6.95055 27.3067 6.43428 28.1133 6.08075C28.9214 5.72656 29.8363 5.56037 30.8419 5.56037C31.6229 5.56037 32.3692 5.67146 33.077 5.89823C33.8105 6.11091 34.4768 6.45854 35.0701 6.94082C35.3243 7.13172 35.5308 7.39115 35.6372 7.72347C35.757 8.03236 35.7666 8.35695 35.683 8.668C35.6153 8.96231 35.4713 9.21674 35.2727 9.42461L35.2529 9.44532L35.2317 9.46439C34.9941 9.6776 34.7115 9.79242 34.4141 9.82356C34.0456 9.86214 33.7126 9.73823 33.4366 9.55438L33.4301 9.55002L33.4237 9.54552C32.9889 9.24204 32.5583 9.02995 32.1317 8.90027L32.1214 8.89714L32.1112 8.89368C31.6715 8.74517 31.2492 8.67427 30.8419 8.67427C30.0066 8.67427 29.4964 8.84899 29.2019 9.08295C28.9079 9.31647 28.7803 9.58827 28.7803 9.96157C28.7803 10.2598 28.8647 10.4515 29.0075 10.601C29.1616 10.7624 29.4636 10.9391 30.0128 11.0602C30.0128 11.0602 30.0129 11.0602 30.013 11.0602L32.2412 11.5473L32.2434 11.5478C33.3711 11.8021 34.3061 12.2288 34.9625 12.8903C35.6725 13.5709 36 14.4878 36 15.5476C36 16.9166 35.4582 18.0418 34.4062 18.8523C33.3802 19.6428 32.063 20 30.5238 20C29.7297 20 28.9305 19.8983 28.1273 19.6972L28.1255 19.6968ZM34.464 13.4464C33.9419 12.9168 33.1506 12.5325 32.0901 12.2933L29.863 11.8065C29.243 11.6698 28.7861 11.4477 28.4925 11.1403C28.1988 10.8328 28.0519 10.4399 28.0519 9.96157C28.0519 9.34659 28.2885 8.8512 28.7617 8.47538C29.2348 8.09957 29.9282 7.91166 30.8419 7.91166C31.3314 7.91166 31.829 7.99707 32.3348 8.1679C32.8406 8.32164 33.3382 8.56934 33.8277 8.91099C34.0072 9.03057 34.1785 9.08181 34.3416 9.06473C34.5048 9.04765 34.6435 8.98786 34.7577 8.88536C34.8719 8.76579 34.9453 8.62913 34.9779 8.47538C35.0269 8.30456 35.0187 8.14227 34.9535 7.98853C34.9045 7.81771 34.7985 7.6725 34.6353 7.55293C34.1132 7.12586 33.5258 6.81838 32.8732 6.63047C32.2369 6.42548 31.5598 6.32298 30.8419 6.32298C29.9119 6.32298 29.0961 6.47672 28.3946 6.78421C27.693 7.0917 27.1464 7.5273 26.7548 8.09103C26.3796 8.63767 26.1919 9.29535 26.1919 10.0641C26.1919 10.9353 26.4367 11.6442 26.9261 12.1908C27.4319 12.7375 28.1988 13.1218 29.2267 13.3439L31.4538 13.8564C32.1227 14.0101 32.6122 14.2322 32.9222 14.5226C33.2322 14.7959 33.3872 15.1717 33.3872 15.6501C33.3872 16.265 33.1506 16.7519 32.6774 17.1106C32.2043 17.4693 31.5027 17.6487 30.5727 17.6487C29.9853 17.6487 29.3898 17.5718 28.7861 17.4181C28.1988 17.2473 27.5869 16.9569 26.9506 16.5469C26.7548 16.4444 26.5754 16.4102 26.4122 16.4444C26.2654 16.4615 26.1348 16.5298 26.0206 16.6494C25.9227 16.769 25.8575 16.9142 25.8248 17.085C25.8085 17.2387 25.833 17.401 25.8983 17.5718C25.9635 17.7256 26.0777 17.8622 26.2409 17.9818C26.8772 18.4431 27.5625 18.7676 28.2967 18.9555C29.0472 19.1434 29.7896 19.2374 30.5238 19.2374C31.9595 19.2374 33.1098 18.9043 33.9745 18.2381C34.8393 17.5718 35.2716 16.675 35.2716 15.5476C35.2716 14.6593 35.0024 13.9589 34.464 13.4464Z" fill="#030303"/>
</svg>