<svg id="pnone-big" xmlns="http://www.w3.org/2000/svg"  viewBox="0 0 29 27" fill="none">
  <path d="M17.6242 5.74868C18.8855 5.97626 20.0446 6.54674 20.9533 7.38711C21.862 8.22748 22.4788 9.2995 22.7249 10.466M17.6242 0.97168C20.2447 1.24091 22.6882 2.32617 24.5537 4.04927C26.4192 5.77237 27.5957 8.0309 27.8901 10.454M26.5988 19.9841V23.5669C26.6003 23.8995 26.5266 24.2287 26.3826 24.5334C26.2385 24.8382 26.0272 25.1117 25.7622 25.3366C25.4972 25.5614 25.1843 25.7326 24.8436 25.8392C24.5029 25.9457 24.142 25.9853 23.7838 25.9554C19.8102 25.5561 15.9933 24.3003 12.6398 22.289C9.51975 20.4555 6.87451 18.009 4.89192 15.1235C2.70958 12.008 1.35146 8.46081 0.927595 4.76939C0.895326 4.43914 0.937764 4.1063 1.05221 3.79205C1.16665 3.4778 1.35059 3.18903 1.59232 2.94413C1.83404 2.69922 2.12826 2.50355 2.45624 2.36957C2.78421 2.2356 3.13876 2.16624 3.4973 2.16593H7.37123C7.99791 2.16022 8.60546 2.36546 9.08062 2.74339C9.55578 3.12131 9.86614 3.64614 9.95385 4.22004C10.1174 5.3666 10.4206 6.49237 10.8578 7.57588C11.0315 8.00333 11.0691 8.46788 10.9661 8.91449C10.8631 9.3611 10.6239 9.77104 10.2767 10.0957L8.63672 11.6124C10.475 14.6023 13.1517 17.0779 16.3846 18.7779L18.0245 17.2612C18.3756 16.9402 18.8189 16.7189 19.3018 16.6236C19.7847 16.5284 20.287 16.5632 20.7492 16.7238C21.9208 17.1281 23.138 17.4086 24.3778 17.5598C25.0051 17.6416 25.5779 17.9339 25.9874 18.3808C26.397 18.8278 26.6146 19.3984 26.5988 19.9841Z"  stroke-width="0.876374" stroke-linecap="round" stroke-linejoin="round"/>
</svg>