<svg id="postman" xmlns="http://www.w3.org/2000/svg" width="37" height="35" viewBox="0 0 37 35" fill="none">
  <path d="M13.9545 18.7337L12.2504 17.1909L9.74939 19.6979L13.9545 18.7337Z" stroke="#030303" stroke-width="0.8"/>
  <path d="M13.6508 19.8896L12.4415 21.1294L14.8601 20.9365L13.6508 19.8896Z" stroke="#030303" stroke-width="0.8"/>
  <path d="M17.4342 23.4285L15.8676 21.9133L11.8 22.6296L3.69214 30.8118L6.41307 33.429L5.94584 31.0597L17.4342 23.4285Z" stroke="#030303" stroke-width="0.8"/>
  <path d="M5.3425 34.2645L3.03383 32.033L1 33.989L5.3425 34.2645Z" stroke="#030303" stroke-width="0.8"/>
  <path d="M19.8448 21.3947L29.9041 12.4688C28.6998 16.3268 25.7171 18.8254 21.4389 23.1303L19.8448 21.3947Z" stroke="#030303" stroke-width="0.8"/>
  <path d="M26.6555 9.33846L16.8436 19.0909L18.0529 20.1929L28.332 11.1567C29.3489 9.33847 28.0022 8.61645 26.6555 9.33846Z" stroke="#030303" stroke-width="0.8"/>
  <path d="M20.4528 9.17287L13.1145 16.0051L15.0384 17.7958L25.8946 7.6301C24.1195 6.42029 22.826 7.28645 20.4528 9.17287Z" stroke="#030303" stroke-width="0.8"/>
  <path d="M29.8811 5.41285C29.8811 5.41285 33.3167 2.13448 33.5365 1.61104C33.7563 1.08761 30.0889 0.398366 28.4244 1.96918C27.4446 3.0797 27.1112 3.81336 27.2976 5.52305C27.6824 7.3964 29.3489 9.13797 32.6845 8.36063L29.8811 5.41285Z" stroke="#030303" stroke-width="0.8"/>
  <path d="M32 5.24784L35.1017 2C37.0745 4.05757 35.3117 7.7824 34.4215 7.99826C34.1529 8.06339 32.7709 6.28169 32 5.24784Z" stroke="#030303" stroke-width="0.8"/>
</svg>