<svg id="react" xmlns="http://www.w3.org/2000/svg" width="28" height="28" viewBox="0 0 28 28" fill="none">
  <path fill-rule="evenodd" clip-rule="evenodd" d="M12.2014 23.2759C14.2692 21.7913 16.5318 19.35 18.4637 16.2936C20.3956 13.2371 21.593 10.204 21.989 7.7905C22.1873 6.58159 22.178 5.56756 21.9901 4.79829C21.8027 4.03137 21.4583 3.5765 21.0399 3.34402C20.6214 3.11154 20.0305 3.04673 19.223 3.26091C18.4131 3.47574 17.4599 3.95502 16.4242 4.69865C14.3563 6.18325 12.0937 8.62449 10.1618 11.681C8.22996 14.7374 7.03254 17.7705 6.63656 20.184C6.43822 21.3929 6.44752 22.407 6.63546 23.1762C6.82283 23.9432 7.16722 24.398 7.58565 24.6305C8.00407 24.863 8.595 24.9278 9.40248 24.7136C10.2124 24.4988 11.1656 24.0195 12.2014 23.2759ZM7.17546 25.2795C9.85024 26.7656 15.2141 22.9147 19.1559 16.6782C23.0977 10.4416 24.1248 4.18117 21.4501 2.69504C18.7753 1.2089 13.4115 5.05985 9.46963 11.2964C5.52781 17.5329 4.50067 23.7934 7.17546 25.2795Z" fill="#030303"/>
  <path fill-rule="evenodd" clip-rule="evenodd" d="M21.853 20.2545C21.4778 17.8381 20.3065 14.7961 18.4009 11.7251C16.4954 8.65413 14.2538 6.19587 12.1988 4.69569C11.1695 3.94425 10.2205 3.45779 9.41241 3.23684C8.6068 3.01656 8.01533 3.0769 7.59492 3.30621C7.17451 3.53552 6.82622 3.98777 6.63227 4.75325C6.43771 5.52108 6.41969 6.53501 6.60764 7.74538C6.98285 10.1618 8.15416 13.2038 10.0597 16.2748C11.9652 19.3458 14.2068 21.804 16.2618 23.3042C17.2911 24.0557 18.2401 24.5421 19.0482 24.7631C19.8538 24.9834 20.4453 24.923 20.8657 24.6937C21.2861 24.4644 21.6344 24.0121 21.8284 23.2467C22.0229 22.4788 22.0409 21.4649 21.853 20.2545ZM21.2703 25.3458C23.9578 23.8799 22.9845 17.6119 19.0964 11.3458C15.2083 5.07965 9.8778 1.18828 7.19032 2.65415C4.50285 4.12003 5.47613 10.388 9.3642 16.6542C13.2523 22.9203 18.5828 26.8116 21.2703 25.3458Z" fill="#030303"/>
  <path fill-rule="evenodd" clip-rule="evenodd" d="M23.5993 10.9618C21.1829 10.0508 17.7894 9.47035 14 9.47035C10.2106 9.47035 6.8171 10.0508 4.40069 10.9618C3.19031 11.4182 2.26462 11.9426 1.65457 12.4864C1.0464 13.0285 0.804597 13.5382 0.804597 13.9942C0.804597 14.4502 1.0464 14.9599 1.65457 15.502C2.26462 16.0458 3.19031 16.5703 4.40069 17.0266C6.8171 17.9376 10.2106 18.5181 14 18.5181C17.7894 18.5181 21.1829 17.9376 23.5993 17.0266C24.8097 16.5703 25.7354 16.0458 26.3454 15.502C26.9536 14.9599 27.1954 14.4502 27.1954 13.9942C27.1954 13.5382 26.9536 13.0285 26.3454 12.4864C25.7354 11.9426 24.8097 11.4182 23.5993 10.9618ZM28 13.9942C28 11.0791 21.732 8.71598 14 8.71598C6.26801 8.71598 -6.13907e-07 11.0791 -3.95486e-07 13.9942C-1.77065e-07 16.9093 6.26801 19.2725 14 19.2725C21.732 19.2725 28 16.9093 28 13.9942Z" fill="#030303"/>
  <path fill-rule="evenodd" clip-rule="evenodd" d="M14.2798 15.4626C15.1561 15.4626 15.8664 14.7966 15.8664 13.9751C15.8664 13.1535 15.1561 12.4875 14.2798 12.4875C13.4036 12.4875 12.6933 13.1535 12.6933 13.9751C12.6933 14.7966 13.4036 15.4626 14.2798 15.4626ZM14.2798 16.217C15.6004 16.217 16.671 15.2132 16.671 13.9751C16.671 12.7369 15.6004 11.7332 14.2798 11.7332C12.9592 11.7332 11.8887 12.7369 11.8887 13.9751C11.8887 15.2132 12.9592 16.217 14.2798 16.217Z" fill="#030303"/>
</svg>