<svg width="100" height="100" style="display: none">

<symbol id="burger"  xmlns="http://www.w3.org/2000/svg" viewBox="0 0 29 20" width="29" height="20" fill="none"><path id="burger" d="M22 7H1M28 1H1M28 13H1M22 19H1" stroke="null" stroke-width="2" stroke-linecap="round" stroke-linejoin="round"/></symbol>
<symbol id="circle"  xmlns="http://www.w3.org/2000/svg" width="4" height="5" viewBox="0 0 4 5" fill="none">
<circle cx="2" cy="2.46167" r="2" fill="#030303"/>
</symbol>
<symbol id="css"  xmlns="http://www.w3.org/2000/svg" width="28" height="29" viewBox="0 0 28 29" fill="none">
  <path fill-rule="evenodd" clip-rule="evenodd" d="M0.14208 1.11219C0.240003 1.01937 0.376128 0.966797 0.518519 0.966797H27.4815C27.6268 0.966797 27.7654 1.02154 27.8636 1.1177C27.9618 1.21386 28.0106 1.3426 27.9981 1.47258L27.5352 6.265C27.5196 6.42649 27.4115 6.56907 27.25 6.64141L18.4903 10.5635L26.4578 10.8096C26.6009 10.814 26.7355 10.8713 26.8299 10.968C26.9243 11.0646 26.9699 11.192 26.9561 11.3199L25.3938 25.7487C25.3731 25.9407 25.2225 26.1013 25.0154 26.1525L13.964 28.8837C13.8742 28.9059 13.7793 28.9059 13.6895 28.8839L2.58028 26.1527C2.36903 26.1008 2.21691 25.9352 2.20021 25.7392L1.56374 18.2671C1.55273 18.1378 1.60225 18.0103 1.70038 17.9152C1.79851 17.8201 1.93636 17.766 2.08075 17.766H7.69321C7.97958 17.766 8.21173 17.9745 8.21173 18.2316V21.6856L13.8218 23.0054L19.0748 21.6823L19.6745 16.4298H1.79145C1.51968 16.4298 1.29402 16.2414 1.2743 15.998L0.869274 10.9994C0.854331 10.815 0.962355 10.6402 1.1445 10.5539L9.30195 6.69034H0.807821C0.532356 6.69034 0.304972 6.49694 0.290063 6.24998L0.000760794 1.45755C-0.00694561 1.32989 0.0441573 1.205 0.14208 1.11219ZM1.0659 1.89792L1.299 5.75922H11.3963C11.6347 5.75922 11.8423 5.90514 11.8996 6.11289C11.9569 6.32065 11.849 6.5367 11.6382 6.63656L1.92817 11.2354L2.27361 15.4987H20.2489C20.3956 15.4987 20.5355 15.5545 20.6338 15.6523C20.7321 15.75 20.7797 15.8806 20.7647 16.0117L20.0704 22.0924C20.0487 22.2826 19.8997 22.4415 19.6947 22.4932L13.9665 23.9361C13.8778 23.9584 13.7841 23.9591 13.695 23.9382L7.56179 22.4953C7.33373 22.4416 7.17469 22.2566 7.17469 22.0449V18.6972H2.64044L3.20638 25.3412L13.8261 27.952L24.3962 25.3398L25.8705 11.7231L16.4123 11.431C16.1752 11.4236 15.9739 11.2727 15.9235 11.0646C15.873 10.8564 15.9864 10.6441 16.1987 10.549L26.5271 5.92459L26.916 1.89792H1.0659Z" fill="#030303"/>
</symbol>
<symbol id="dev-symbol"  viewBox="0 0 86 68" xmlns="http://www.w3.org/2000/svg" width="76" height="54" fill="none"><path d="M46.482 5.865a3.826 3.826 0 0 0-4.299 3.323L35.95 57.394c-.268 2.102 1.274 3.758 3.322 4.298 2.098.561 4.117-.389 4.299-3.322l6.234-48.206c.27-2.088-1.217-4.017-3.322-4.299ZM78.249 23.578 57.017 15.12a3.84 3.84 0 0 0-4.99 2.148 3.84 3.84 0 0 0 2.147 4.99l15.698 6.257-12.185 11.71c-1.531 1.47-1.434 3.779-.11 5.431 1.347 1.68 3.439 1.579 5.433.11l16.478-15.848a3.82 3.82 0 0 0 1.104-3.5 3.862 3.862 0 0 0-2.343-2.84ZM31.6 45.326 15.9 39.069 28.087 27.36a3.84 3.84 0 0 0 .109-5.432 3.84 3.84 0 0 0-5.432-.11L6.282 37.653a3.833 3.833 0 0 0-1.118 3.502 3.835 3.835 0 0 0 2.34 2.826l21.235 8.472c3.304.973 4.366-.453 4.99-2.147.754-1.982-.174-4.205-2.13-4.98Z" fill="#878382" fill-opacity=".5"/></symbol>

<symbol id="email"  xmlns="http://www.w3.org/2000/svg" width="29" height="22" viewBox="0 0 29 22" fill="none">
<path d="M3.6973 1H25.2757C26.7592 1 27.973 2.14553 27.973 3.54562V18.8194C27.973 20.2195 26.7592 21.365 25.2757 21.365H3.6973C2.21379 21.365 1 20.2195 1 18.8194V3.54562C1 2.14553 2.21379 1 3.6973 1Z" stroke="#E6EAE9" stroke-width="0.876374" stroke-linecap="round" stroke-linejoin="round"/>
<path d="M27.973 3.44397L14.4865 12.4046L1 3.44397" stroke="#E6EAE9" stroke-width="0.876374" stroke-linecap="round" stroke-linejoin="round"/>
</symbol>
<symbol id="figma"  xmlns="http://www.w3.org/2000/svg" width="20" height="28" viewBox="0 0 20 28" fill="none">
  <path fill-rule="evenodd" clip-rule="evenodd" d="M4.91078 8.98229C3.48006 8.9125 2.51744 8.369 1.92106 7.63514C1.31556 6.89005 1.05103 5.90319 1.1119 4.89912C1.23514 2.86629 2.6498 0.976336 4.89916 0.976336H13.9574C13.9575 0.976336 13.9576 0.976336 13.9576 0.488168L13.9574 0.976336C16.5432 0.976336 18.14 2.94208 18.2936 4.94356C18.3699 5.93803 18.0859 6.91554 17.4073 7.65389C16.7327 8.38799 15.622 8.93507 13.9509 8.98229H4.91078ZM0.13967 4.8399C0.284269 2.45478 1.98637 0 4.89916 0H13.9574C13.9575 0 13.9576 0 13.9576 0.488168L13.9574 0C17.1186 0 19.0774 2.42781 19.2647 4.86868C19.3589 6.09539 19.0098 7.35125 18.1237 8.31538C17.2347 9.2828 15.8514 9.90683 13.9709 9.95844L13.9643 9.95862H4.88775L4.87636 9.95809C3.19649 9.87918 1.95892 9.22762 1.16588 8.25176C0.380402 7.28521 0.0666219 6.0448 0.13967 4.8399Z" fill="#030303"/>
  <path fill-rule="evenodd" clip-rule="evenodd" d="M9.08765 9.47057V0.488281H10.0617V9.47057H9.08765Z" fill="#030303"/>
  <path fill-rule="evenodd" clip-rule="evenodd" d="M4.54878 8.98242H10.0617V19.0387H4.36594L4.32037 19.0299C1.55657 18.4971 0.0611563 16.3616 0.0511977 14.1518C0.0412072 11.9348 1.52128 9.72043 4.49206 8.99625L4.54878 8.98242ZM4.66653 9.95876C2.15042 10.5946 1.01742 12.4179 1.02521 14.1474C1.03305 15.8853 2.1881 17.6051 4.45973 18.0623H9.08767V9.95876H4.66653Z" fill="#030303"/>
  <path fill-rule="evenodd" clip-rule="evenodd" d="M0.247387 21.6008C0.746697 20.0728 2.02303 18.6613 4.2913 18.0776L4.53348 19.0233C2.57865 19.5263 1.566 20.7021 1.17302 21.9047C0.769006 23.1411 1.01674 24.3962 1.57404 25.0745L1.58945 25.0932L1.60293 25.1134C3.19071 27.4932 6.65775 27.8217 8.48965 25.111L8.49089 25.1092C8.70066 24.8018 8.86984 24.4395 8.97625 23.5154C9.08496 22.5712 9.12308 21.0863 9.08772 18.5573L10.0616 18.5436C10.097 21.0718 10.0606 22.6137 9.94385 23.6273C9.82493 24.6602 9.61805 25.1865 9.2955 25.6595C7.04149 28.9936 2.74501 28.5541 0.8065 25.6759C0.0124728 24.6926 -0.23771 23.0853 0.247387 21.6008Z" fill="#030303"/>
  <path fill-rule="evenodd" clip-rule="evenodd" d="M14.1526 17.6719C16.143 17.6719 17.7565 16.0546 17.7565 14.0595C17.7565 12.0644 16.143 10.447 14.1526 10.447C12.1623 10.447 10.5487 12.0644 10.5487 14.0595C10.5487 16.0546 12.1623 17.6719 14.1526 17.6719ZM14.1526 18.6483C16.6809 18.6483 18.7305 16.5938 18.7305 14.0595C18.7305 11.5252 16.6809 9.4707 14.1526 9.4707C11.6243 9.4707 9.57471 11.5252 9.57471 14.0595C9.57471 16.5938 11.6243 18.6483 14.1526 18.6483Z" fill="#030303"/>
</symbol>
<symbol id="git"  xmlns="http://www.w3.org/2000/svg" viewBox="0 0 30 30" fill="none">
  <path d="M11.0513 25.0051C3.8718 27.0025 3.87179 21.676 1 21.0102M21.1026 29V23.8466C21.1564 23.2116 21.0639 22.5733 20.8312 21.974C20.5985 21.3748 20.2309 20.8283 19.7528 20.371C24.2615 19.9049 29 18.3203 29 11.0496C28.9996 9.19038 28.2285 7.40249 26.8462 6.05594C27.5007 4.42936 27.4544 2.63144 26.7169 1.03568C26.7169 1.03568 25.0226 0.569607 21.1026 3.0065C17.8115 2.17932 14.3423 2.17932 11.0513 3.0065C7.13128 0.569607 5.43692 1.03568 5.43692 1.03568C4.69941 2.63144 4.65313 4.42936 5.30769 6.05594C3.91505 7.41248 3.14311 9.21653 3.15385 11.0895C3.15385 18.307 7.89231 19.8916 12.401 20.411C11.9286 20.8637 11.5643 21.4036 11.3317 21.9955C11.0992 22.5874 11.0036 23.2181 11.0513 23.8466V29" stroke-linecap="round" stroke-linejoin="round"/>
</symbol>
<symbol id="html"  xmlns="http://www.w3.org/2000/svg" width="28" height="29" viewBox="0 0 28 29" fill="none">
<path fill-rule="evenodd" clip-rule="evenodd" d="M0.135787 1.11337C0.233256 1.01996 0.370688 0.966797 0.514708 0.966797H27.4853C27.6285 0.966797 27.7653 1.01939 27.8627 1.11193C27.9601 1.20448 28.0093 1.32859 27.9985 1.45444L27.5899 6.21776C27.5696 6.45427 27.3459 6.63705 27.0766 6.63705H7.25784L7.58868 10.4934H26.668C26.812 10.4934 26.9494 10.5466 27.0468 10.6399C27.1443 10.7333 27.1929 10.8583 27.1809 10.9847L25.7798 25.7406C25.7619 25.9295 25.6126 26.0886 25.4054 26.1396L14.2552 28.8837C14.1649 28.9059 14.0693 28.906 13.9789 28.8838L2.7704 26.1397C2.56159 26.0886 2.4115 25.9278 2.39499 25.7374L1.75283 18.3335C1.74191 18.2076 1.79107 18.0834 1.88848 17.9908C1.98589 17.8982 2.12272 17.8455 2.26604 17.8455H7.87032C8.15459 17.8455 8.38503 18.0485 8.38503 18.299V21.5831L14.1117 23.0546L19.4751 21.58L20.0298 16.5261H1.91578C1.64826 16.5261 1.42534 16.3456 1.40289 16.1107L0.00181846 1.45833C-0.0102715 1.33189 0.0383181 1.20678 0.135787 1.11337ZM1.0746 1.87373L2.38895 15.6192H20.5967C20.7418 15.6192 20.8802 15.6732 20.9778 15.7678C21.0753 15.8625 21.123 15.989 21.109 16.1163L20.4669 21.9669C20.4469 22.1484 20.3055 22.3018 20.1079 22.3561L14.2701 23.9612C14.1734 23.9877 14.0699 23.9886 13.9726 23.9636L7.72621 22.3586C7.5066 22.3021 7.35562 22.1248 7.35562 21.9232V18.7524H2.82158L3.3939 25.3511L14.1164 27.9762L24.7838 25.3509L26.1084 11.4004H7.11141C6.84219 11.4004 6.61846 11.2176 6.59817 10.9811L6.18952 6.21776C6.17873 6.09191 6.22794 5.96779 6.32535 5.87525C6.42275 5.78271 6.55951 5.73011 6.70276 5.73011H26.5994L26.9302 1.87373H1.0746Z" fill="#030303"/>
</symbol>
<symbol id="icon-close"  xmlns="http://www.w3.org/2000/svg" viewBox="0 0 29 29" fill="none">
  <path d="M28 1L1 28" stroke="white" stroke-width="2" stroke-linecap="round" stroke-linejoin="round"/>
  <path d="M1 1L28 28" stroke="white" stroke-width="2" stroke-linecap="round" stroke-linejoin="round"/>
</symbol>
<symbol id="js"  xmlns="http://www.w3.org/2000/svg" width="28" height="23" viewBox="0 0 28 23" fill="none">
  <path fill-rule="evenodd" clip-rule="evenodd" d="M2.07365 22.365L2.05732 22.3659C1.519 22.394 0.96553 22.2548 0.554861 21.8161C0.186463 21.4426 0 20.9703 0 20.4514C0 20.0232 0.145982 19.6344 0.4029 19.3068C0.731653 18.8574 1.2266 18.6817 1.69857 18.6523C1.69873 18.6523 1.6989 18.6523 1.69906 18.6523L2.58524 18.5954C3.3928 18.5313 3.90819 18.2688 4.24486 17.887C4.59461 17.4718 4.81693 16.8574 4.81693 15.9466V2.11647C4.81693 1.59725 4.93981 1.03794 5.3568 0.623132C5.77178 0.210327 6.31377 0.0573875 6.85798 0.0573875C7.38493 0.0573875 7.92774 0.201865 8.33081 0.622933C8.76151 1.03153 8.89903 1.58821 8.89903 2.11647V15.9753C8.89903 17.1646 8.6892 18.2421 8.23876 19.1831L8.23702 19.1867L8.23525 19.1903C7.7752 20.1285 7.07908 20.8665 6.16496 21.3903C5.27751 21.9099 4.2225 22.1942 3.03314 22.2782L2.07365 22.365ZM2.96405 21.427C4.06012 21.3505 4.98313 21.0922 5.73307 20.6523C6.50224 20.2123 7.07912 19.6002 7.4637 18.8159C7.84829 18.0125 8.04058 17.0656 8.04058 15.9753V2.11647C8.04058 1.71476 7.93482 1.41826 7.7233 1.22698C7.531 1.01656 7.24256 0.911352 6.85798 0.911352C6.47339 0.911352 6.17534 1.01656 5.96382 1.22698C5.77153 1.41826 5.67538 1.71476 5.67538 2.11647V15.9466C5.67538 16.9987 5.41578 17.8308 4.89659 18.4429C4.3774 19.0359 3.62746 19.3707 2.64677 19.4472L1.75261 19.5046C1.44494 19.5237 1.22381 19.6289 1.0892 19.8202C0.935366 20.0115 0.858449 20.2219 0.858449 20.4514C0.858449 20.7575 0.96421 21.0157 1.17573 21.2261C1.36802 21.4366 1.64685 21.5322 2.0122 21.5131L2.96405 21.427ZM14.2539 21.5054L14.2504 21.504C13.4538 21.1912 12.7238 20.7922 12.0639 20.3051L12.0621 20.3038L12.0603 20.3025C11.7418 20.0648 11.472 19.7675 11.3035 19.3988L11.2849 19.358L11.2706 19.3155C11.1542 18.9679 11.1152 18.6021 11.1827 18.2328L11.1877 18.2054L11.1945 18.1784C11.2798 17.8389 11.4318 17.5198 11.6697 17.2493L11.6886 17.2279L11.7088 17.2078C12.0008 16.9173 12.3693 16.7406 12.7861 16.703C13.2411 16.6618 13.6572 16.8135 14.006 17.027L14.0303 17.0419L14.0536 17.0583C14.8421 17.6161 15.6768 18.0222 16.5599 18.2814C17.4512 18.5239 18.476 18.6506 19.6421 18.6506C21.2967 18.6506 22.3479 18.3436 22.9545 17.8812C23.5922 17.3906 23.8891 16.7878 23.8891 16.004C23.8891 15.3736 23.6786 14.9658 23.296 14.6684L23.2843 14.6593L23.2729 14.6498C22.8454 14.2931 22.0102 13.9353 20.626 13.6561M20.6253 13.656L17.6218 13.0527L17.6175 13.0517C15.7236 12.6509 14.1969 11.9793 13.1355 10.9682L13.1287 10.9618L13.1221 10.9553C12.0495 9.88828 11.5439 8.48999 11.5439 6.85085C11.5439 5.83509 11.7508 4.89059 12.1805 4.03403C12.6009 3.17717 13.1891 2.44813 13.9393 1.85413C14.6855 1.24417 15.5618 0.785963 16.5544 0.470825C17.5545 0.153313 18.644 0 19.8152 0C21.1057 0 22.3203 0.183069 23.4525 0.557347C24.6061 0.913213 25.6506 1.45885 26.5799 2.19418L26.5845 2.19783L26.5891 2.20156C26.9073 2.46058 27.1537 2.78799 27.2889 3.18421C27.4211 3.55247 27.4398 3.93937 27.3352 4.32099L27.3323 4.33138L27.3292 4.34169C27.2269 4.68108 27.0377 4.97422 26.7752 5.20893C26.4721 5.49935 26.0937 5.6325 25.7162 5.66437C25.2404 5.70642 24.8079 5.52724 24.4564 5.30242L24.4303 5.28575L24.4055 5.26725C23.7076 4.74657 22.9986 4.3844 22.2781 4.1677L22.2694 4.16508L22.2608 4.16228C21.5315 3.92609 20.7093 3.80253 19.7864 3.80253C18.8531 3.80253 18.0853 3.94264 17.4622 4.19622C16.8687 4.44548 16.4257 4.79783 16.1038 5.24818C15.8113 5.66474 15.6548 6.15893 15.6548 6.76477C15.6548 7.4954 15.8685 7.98206 16.2239 8.3261C16.6299 8.70001 17.3756 9.04833 18.5942 9.28354L18.6013 9.28491L21.6052 9.91704C21.6057 9.91715 21.6062 9.91726 21.6068 9.91736C23.6117 10.3322 25.2103 10.9848 26.294 11.9472C27.4479 12.9347 28 14.2833 28 15.8892C28 16.8511 27.8013 17.7548 27.3943 18.5869C26.9889 19.4159 26.405 20.127 25.6563 20.7185L25.6502 20.7233L25.6439 20.7281C24.8932 21.2992 24.0055 21.7248 22.9976 22.0173C21.9828 22.3117 20.8615 22.4531 19.6421 22.4531C18.6894 22.4531 17.7545 22.3724 16.8382 22.2104C15.924 22.0487 15.063 21.8149 14.2574 21.5067L14.2539 21.5054M25.7282 12.5895C24.8052 11.7669 23.3726 11.1548 21.4305 10.7531L18.4307 10.1219C17.1423 9.8732 16.2097 9.48106 15.6328 8.94545C15.0752 8.40985 14.7964 7.68295 14.7964 6.76477C14.7964 5.99961 14.9983 5.33011 15.4021 4.75624C15.8251 4.16325 16.402 3.71372 17.1327 3.40766C17.8827 3.1016 18.7672 2.94857 19.7864 2.94857C20.7863 2.94857 21.6997 3.08247 22.5265 3.35027C23.3534 3.59895 24.1514 4.01022 24.9206 4.58408C25.1898 4.75624 25.4301 4.83276 25.6417 4.81363C25.8724 4.7945 26.0551 4.71798 26.1897 4.58408C26.3435 4.45018 26.4493 4.28759 26.507 4.0963C26.5647 3.88588 26.5551 3.67546 26.4781 3.46505C26.4012 3.2355 26.257 3.03465 26.0455 2.86249C25.1994 2.19298 24.2475 1.69563 23.1899 1.37044C22.1516 1.02612 21.0266 0.853965 19.8152 0.853965C18.7191 0.853965 17.7192 0.997431 16.8154 1.28436C15.9117 1.5713 15.1329 1.98257 14.4791 2.51817C13.8253 3.03465 13.3157 3.6659 12.9504 4.41192C12.585 5.13882 12.4023 5.95179 12.4023 6.85085C12.4023 8.30464 12.8446 9.47149 13.7291 10.3514C14.6329 11.2122 15.9886 11.8339 17.7961 12.2165L20.7959 12.819C22.2189 13.106 23.2284 13.4981 23.8245 13.9955C24.4398 14.4737 24.7475 15.1432 24.7475 16.004C24.7475 17.0561 24.3245 17.9073 23.4784 18.5577C22.6515 19.1889 21.3728 19.5046 19.6421 19.5046C18.4115 19.5046 17.3058 19.3707 16.3251 19.1028C15.3444 18.8159 14.4214 18.3664 13.5561 17.7543C13.3061 17.6012 13.0753 17.5343 12.8638 17.5534C12.6523 17.5725 12.4696 17.6586 12.3158 17.8117C12.1812 17.9647 12.085 18.156 12.0273 18.3855C11.9889 18.5959 12.0081 18.8159 12.085 19.0455C12.1812 19.2559 12.3446 19.4472 12.5754 19.6193C13.1715 20.0593 13.8349 20.4227 14.5656 20.7097C15.3156 20.9966 16.1232 21.2166 16.9885 21.3696C17.8538 21.5226 18.7384 21.5992 19.6421 21.5992C20.7959 21.5992 21.8343 21.4653 22.7573 21.1975C23.6803 20.9296 24.4687 20.5471 25.1225 20.0497C25.7763 19.5332 26.2762 18.9211 26.6224 18.2134C26.9685 17.5056 27.1416 16.7309 27.1416 15.8892C27.1416 14.4928 26.6704 13.3929 25.7282 12.5895Z" fill="#030303"/>
</symbol>
<symbol id="linkedin"  xmlns="http://www.w3.org/2000/svg" viewBox="0 0 29 27" fill="none">
  <path d="M19.7723 8.69568C21.9184 8.69568 23.9766 9.52722 25.4942 11.0074C27.0117 12.4875 27.8642 14.4951 27.8642 16.5883V25.7964H22.4696V16.5883C22.4696 15.8906 22.1855 15.2214 21.6796 14.728C21.1738 14.2346 20.4877 13.9574 19.7723 13.9574C19.057 13.9574 18.3709 14.2346 17.865 14.728C17.3592 15.2214 17.075 15.8906 17.075 16.5883V25.7964H11.6804V16.5883C11.6804 14.4951 12.533 12.4875 14.0505 11.0074C15.568 9.52722 17.6262 8.69568 19.7723 8.69568Z" stroke-width="0.876374" stroke-linecap="round" stroke-linejoin="round"/>
  <path d="M6.28572 10.011H0.891113V25.7963H6.28572V10.011Z" stroke-width="0.876374" stroke-linecap="round" stroke-linejoin="round"/>
  <path d="M3.58842 6.06487C5.0781 6.06487 6.28572 4.88698 6.28572 3.43398C6.28572 1.98099 5.0781 0.803101 3.58842 0.803101C2.09874 0.803101 0.891113 1.98099 0.891113 3.43398C0.891113 4.88698 2.09874 6.06487 3.58842 6.06487Z"  stroke-width="0.876374" stroke-linecap="round" stroke-linejoin="round"/>
</symbol>
<symbol id="node"  xmlns="http://www.w3.org/2000/svg" width="36" height="20" viewBox="0 0 36 20" fill="none">
  <path fill-rule="evenodd" clip-rule="evenodd" d="M0.445817 19.4563L0.434157 19.4429C0.112236 19.0721 0 18.6004 0 18.1356V1.83881C0 1.37397 0.112236 0.902243 0.434158 0.531485C0.746754 0.171469 1.16073 0 1.60943 0C1.91301 0 2.29455 0.0507261 2.60112 0.29879C2.83312 0.463094 3.03123 0.705407 3.20036 0.952364L11.9676 13.1844V1.78757C11.9676 1.33781 12.0813 0.874093 12.4134 0.518201C12.7496 0.139674 13.2012 0 13.6504 0C14.0884 0 14.5322 0.143835 14.8515 0.532351C15.1735 0.886334 15.2843 1.34375 15.2843 1.78757V18.1612C15.2843 18.601 15.1844 19.0462 14.9019 19.4096C14.5994 19.8031 14.1689 19.9488 13.7483 19.9488C13.4135 19.9488 13.0614 19.8795 12.7569 19.6669C12.519 19.5008 12.3079 19.2682 12.1186 19.0105L12.1157 19.0066L3.34122 6.73625V18.1356C3.34122 18.6004 3.22898 19.0721 2.90706 19.4429L2.8954 19.4563L2.88315 19.4692C2.5487 19.8193 2.11438 19.9488 1.68285 19.9488C1.24804 19.9488 0.799575 19.8267 0.458073 19.4692L0.445817 19.4563ZM2.61284 4.44526L12.6959 18.5455C12.8591 18.7676 13.0141 18.9299 13.1609 19.0324C13.3078 19.1349 13.5036 19.1861 13.7483 19.1861C14.0094 19.1861 14.2051 19.1007 14.3357 18.9299C14.4825 18.742 14.5559 18.4858 14.5559 18.1612V1.78757C14.5559 1.463 14.4743 1.2153 14.3112 1.04448C14.1643 0.856567 13.9441 0.762614 13.6504 0.762614C13.3404 0.762614 13.1038 0.856567 12.9407 1.04448C12.7775 1.2153 12.6959 1.463 12.6959 1.78757V15.4712L2.61284 1.40321C2.44968 1.16405 2.30284 1.00177 2.17232 0.916356C2.05811 0.813861 1.87048 0.762614 1.60943 0.762614C1.34838 0.762614 1.13627 0.856567 0.973114 1.04448C0.809957 1.23238 0.728379 1.49716 0.728379 1.83881V18.1356C0.728379 18.4772 0.809957 18.742 0.973114 18.9299C1.13627 19.1007 1.37285 19.1861 1.68285 19.1861C1.97653 19.1861 2.20495 19.1007 2.36811 18.9299C2.53126 18.742 2.61284 18.4772 2.61284 18.1356V4.44526ZM17.4527 19.9213L17.4389 19.9221C16.9821 19.9472 16.5125 19.8229 16.1641 19.4311C15.8515 19.0976 15.6933 18.6758 15.6933 18.2124C15.6933 17.83 15.8171 17.4828 16.0351 17.1903C16.3141 16.789 16.734 16.6321 17.1344 16.6058C17.1346 16.6057 17.1347 16.6057 17.1349 16.6057L17.8868 16.5549C18.572 16.4978 19.0093 16.2633 19.2949 15.9224C19.5917 15.5515 19.7803 15.0029 19.7803 14.1895V1.83881C19.7803 1.37513 19.8846 0.875663 20.2384 0.505225C20.5905 0.136579 21.0504 0 21.5121 0C21.9593 0 22.4198 0.129023 22.7618 0.505048C23.1273 0.869935 23.2439 1.36706 23.2439 1.83881V14.2151C23.2439 15.2772 23.0659 16.2394 22.6837 17.0798L22.6822 17.083L22.6807 17.0862C22.2904 17.9241 21.6997 18.5831 20.9241 19.0509C20.1711 19.5149 19.276 19.7687 18.2668 19.8438L17.4527 19.9213ZM18.2082 19.0836C19.1382 19.0153 19.9214 18.7847 20.5577 18.3918C21.2103 17.9989 21.6998 17.4523 22.0261 16.7519C22.3524 16.0344 22.5156 15.1888 22.5156 14.2151V1.83881C22.5156 1.48008 22.4258 1.2153 22.2464 1.04448C22.0832 0.856567 21.8385 0.762614 21.5121 0.762614C21.1858 0.762614 20.9329 0.856567 20.7535 1.04448C20.5903 1.2153 20.5087 1.48008 20.5087 1.83881V14.1895C20.5087 15.129 20.2885 15.8721 19.8479 16.4188C19.4074 16.9483 18.7711 17.2473 17.939 17.3156L17.1803 17.3668C16.9193 17.3839 16.7316 17.4779 16.6174 17.6487C16.4869 17.8195 16.4216 18.0074 16.4216 18.2124C16.4216 18.4858 16.5114 18.7164 16.6909 18.9043C16.854 19.0922 17.0906 19.1776 17.4006 19.1605L18.2082 19.0836ZM28.1255 19.6968L28.1237 19.6963C27.3009 19.4857 26.534 19.1218 25.8263 18.6088L25.8247 18.6077L25.8232 18.6066C25.5774 18.4264 25.3632 18.189 25.2327 17.8816L25.2271 17.8684L25.222 17.8551C25.1206 17.5897 25.0691 17.3008 25.1009 17.0008L25.1044 16.9679L25.1106 16.9354C25.1651 16.6504 25.2801 16.3821 25.4676 16.1531L25.4858 16.1308L25.5056 16.1101C25.7181 15.8876 25.9871 15.7345 26.3006 15.6905C26.6548 15.6252 26.9899 15.7148 27.2764 15.8648L27.3051 15.8798L27.3324 15.8974C27.9188 16.2752 28.4643 16.5316 28.9699 16.68C29.5164 16.8183 30.0503 16.8861 30.5727 16.8861C31.4332 16.8861 31.9554 16.7165 32.2502 16.4929C32.533 16.2786 32.6588 16.0221 32.6588 15.6501C32.6588 15.3646 32.5765 15.2149 32.453 15.1059L32.4446 15.0986L32.4365 15.0909C32.2621 14.9275 31.9145 14.743 31.2976 14.6013L29.0747 14.0898C27.9664 13.8496 27.0455 13.4159 26.403 12.7215L26.3988 12.717L26.3948 12.7124C25.7583 12.0016 25.4636 11.0953 25.4636 10.0641C25.4636 9.15917 25.6868 8.34016 26.1634 7.64594L26.1646 7.6442L26.1658 7.64248C26.6464 6.95055 27.3067 6.43428 28.1133 6.08075C28.9214 5.72656 29.8363 5.56037 30.8419 5.56037C31.6229 5.56037 32.3692 5.67146 33.077 5.89823C33.8105 6.11091 34.4768 6.45854 35.0701 6.94082C35.3243 7.13172 35.5308 7.39115 35.6372 7.72347C35.757 8.03236 35.7666 8.35695 35.683 8.668C35.6153 8.96231 35.4713 9.21674 35.2727 9.42461L35.2529 9.44532L35.2317 9.46439C34.9941 9.6776 34.7115 9.79242 34.4141 9.82356C34.0456 9.86214 33.7126 9.73823 33.4366 9.55438L33.4301 9.55002L33.4237 9.54552C32.9889 9.24204 32.5583 9.02995 32.1317 8.90027L32.1214 8.89714L32.1112 8.89368C31.6715 8.74517 31.2492 8.67427 30.8419 8.67427C30.0066 8.67427 29.4964 8.84899 29.2019 9.08295C28.9079 9.31647 28.7803 9.58827 28.7803 9.96157C28.7803 10.2598 28.8647 10.4515 29.0075 10.601C29.1616 10.7624 29.4636 10.9391 30.0128 11.0602C30.0128 11.0602 30.0129 11.0602 30.013 11.0602L32.2412 11.5473L32.2434 11.5478C33.3711 11.8021 34.3061 12.2288 34.9625 12.8903C35.6725 13.5709 36 14.4878 36 15.5476C36 16.9166 35.4582 18.0418 34.4062 18.8523C33.3802 19.6428 32.063 20 30.5238 20C29.7297 20 28.9305 19.8983 28.1273 19.6972L28.1255 19.6968ZM34.464 13.4464C33.9419 12.9168 33.1506 12.5325 32.0901 12.2933L29.863 11.8065C29.243 11.6698 28.7861 11.4477 28.4925 11.1403C28.1988 10.8328 28.0519 10.4399 28.0519 9.96157C28.0519 9.34659 28.2885 8.8512 28.7617 8.47538C29.2348 8.09957 29.9282 7.91166 30.8419 7.91166C31.3314 7.91166 31.829 7.99707 32.3348 8.1679C32.8406 8.32164 33.3382 8.56934 33.8277 8.91099C34.0072 9.03057 34.1785 9.08181 34.3416 9.06473C34.5048 9.04765 34.6435 8.98786 34.7577 8.88536C34.8719 8.76579 34.9453 8.62913 34.9779 8.47538C35.0269 8.30456 35.0187 8.14227 34.9535 7.98853C34.9045 7.81771 34.7985 7.6725 34.6353 7.55293C34.1132 7.12586 33.5258 6.81838 32.8732 6.63047C32.2369 6.42548 31.5598 6.32298 30.8419 6.32298C29.9119 6.32298 29.0961 6.47672 28.3946 6.78421C27.693 7.0917 27.1464 7.5273 26.7548 8.09103C26.3796 8.63767 26.1919 9.29535 26.1919 10.0641C26.1919 10.9353 26.4367 11.6442 26.9261 12.1908C27.4319 12.7375 28.1988 13.1218 29.2267 13.3439L31.4538 13.8564C32.1227 14.0101 32.6122 14.2322 32.9222 14.5226C33.2322 14.7959 33.3872 15.1717 33.3872 15.6501C33.3872 16.265 33.1506 16.7519 32.6774 17.1106C32.2043 17.4693 31.5027 17.6487 30.5727 17.6487C29.9853 17.6487 29.3898 17.5718 28.7861 17.4181C28.1988 17.2473 27.5869 16.9569 26.9506 16.5469C26.7548 16.4444 26.5754 16.4102 26.4122 16.4444C26.2654 16.4615 26.1348 16.5298 26.0206 16.6494C25.9227 16.769 25.8575 16.9142 25.8248 17.085C25.8085 17.2387 25.833 17.401 25.8983 17.5718C25.9635 17.7256 26.0777 17.8622 26.2409 17.9818C26.8772 18.4431 27.5625 18.7676 28.2967 18.9555C29.0472 19.1434 29.7896 19.2374 30.5238 19.2374C31.9595 19.2374 33.1098 18.9043 33.9745 18.2381C34.8393 17.5718 35.2716 16.675 35.2716 15.5476C35.2716 14.6593 35.0024 13.9589 34.464 13.4464Z" fill="#030303"/>
</symbol>
<symbol id="phone"  xmlns="http://www.w3.org/2000/svg" viewBox="0 0 20 20" fill="none">
<path d="M12.1492 4.44035C12.9909 4.60425 13.7644 5.01511 14.3708 5.62033C14.9772 6.22556 15.3888 6.99761 15.5531 7.83769M12.1492 1C13.8979 1.19389 15.5286 1.97549 16.7735 3.21645C18.0184 4.45741 18.8035 6.08398 19 7.82909M18.1383 14.6926V17.2728C18.1392 17.5124 18.0901 17.7495 17.9939 17.969C17.8978 18.1884 17.7568 18.3854 17.5799 18.5474C17.4031 18.7093 17.1943 18.8326 16.967 18.9093C16.7396 18.9861 16.4987 19.0146 16.2597 18.993C13.608 18.7054 11.0608 17.8011 8.82292 16.3526C6.74082 15.032 4.97557 13.2701 3.65252 11.192C2.19617 8.94824 1.28985 6.3936 1.00699 3.73508C0.98546 3.49723 1.01378 3.25752 1.09015 3.0312C1.16652 2.80488 1.28927 2.59691 1.45059 2.42054C1.6119 2.24416 1.80824 2.10324 2.02711 2.00675C2.24598 1.91026 2.48258 1.86031 2.72185 1.86009H5.30705C5.72525 1.85598 6.13069 2.00379 6.44778 2.27597C6.76487 2.54815 6.97198 2.92612 7.03051 3.33944C7.13963 4.16518 7.34199 4.97595 7.63373 5.75628C7.74967 6.06413 7.77476 6.39869 7.70603 6.72034C7.63731 7.04198 7.47764 7.33722 7.24595 7.57106L6.15155 8.66337C7.37827 10.8166 9.16456 12.5995 11.322 13.8239L12.4164 12.7316C12.6506 12.5003 12.9465 12.341 13.2687 12.2724C13.591 12.2038 13.9262 12.2288 14.2346 12.3445C15.0164 12.6357 15.8288 12.8377 16.6561 12.9466C17.0747 13.0055 17.457 13.216 17.7303 13.5379C18.0035 13.8598 18.1488 14.2708 18.1383 14.6926Z"  stroke-linecap="round" stroke-linejoin="round"/>
</symbol>
<symbol id="postman"  xmlns="http://www.w3.org/2000/svg" width="37" height="35" viewBox="0 0 37 35" fill="none">
  <path d="M13.9545 18.7337L12.2504 17.1909L9.74939 19.6979L13.9545 18.7337Z" stroke="#030303" stroke-width="0.8"/>
  <path d="M13.6508 19.8896L12.4415 21.1294L14.8601 20.9365L13.6508 19.8896Z" stroke="#030303" stroke-width="0.8"/>
  <path d="M17.4342 23.4285L15.8676 21.9133L11.8 22.6296L3.69214 30.8118L6.41307 33.429L5.94584 31.0597L17.4342 23.4285Z" stroke="#030303" stroke-width="0.8"/>
  <path d="M5.3425 34.2645L3.03383 32.033L1 33.989L5.3425 34.2645Z" stroke="#030303" stroke-width="0.8"/>
  <path d="M19.8448 21.3947L29.9041 12.4688C28.6998 16.3268 25.7171 18.8254 21.4389 23.1303L19.8448 21.3947Z" stroke="#030303" stroke-width="0.8"/>
  <path d="M26.6555 9.33846L16.8436 19.0909L18.0529 20.1929L28.332 11.1567C29.3489 9.33847 28.0022 8.61645 26.6555 9.33846Z" stroke="#030303" stroke-width="0.8"/>
  <path d="M20.4528 9.17287L13.1145 16.0051L15.0384 17.7958L25.8946 7.6301C24.1195 6.42029 22.826 7.28645 20.4528 9.17287Z" stroke="#030303" stroke-width="0.8"/>
  <path d="M29.8811 5.41285C29.8811 5.41285 33.3167 2.13448 33.5365 1.61104C33.7563 1.08761 30.0889 0.398366 28.4244 1.96918C27.4446 3.0797 27.1112 3.81336 27.2976 5.52305C27.6824 7.3964 29.3489 9.13797 32.6845 8.36063L29.8811 5.41285Z" stroke="#030303" stroke-width="0.8"/>
  <path d="M32 5.24784L35.1017 2C37.0745 4.05757 35.3117 7.7824 34.4215 7.99826C34.1529 8.06339 32.7709 6.28169 32 5.24784Z" stroke="#030303" stroke-width="0.8"/>
</symbol>
<symbol id="react"  xmlns="http://www.w3.org/2000/svg" width="28" height="28" viewBox="0 0 28 28" fill="none">
  <path fill-rule="evenodd" clip-rule="evenodd" d="M12.2014 23.2759C14.2692 21.7913 16.5318 19.35 18.4637 16.2936C20.3956 13.2371 21.593 10.204 21.989 7.7905C22.1873 6.58159 22.178 5.56756 21.9901 4.79829C21.8027 4.03137 21.4583 3.5765 21.0399 3.34402C20.6214 3.11154 20.0305 3.04673 19.223 3.26091C18.4131 3.47574 17.4599 3.95502 16.4242 4.69865C14.3563 6.18325 12.0937 8.62449 10.1618 11.681C8.22996 14.7374 7.03254 17.7705 6.63656 20.184C6.43822 21.3929 6.44752 22.407 6.63546 23.1762C6.82283 23.9432 7.16722 24.398 7.58565 24.6305C8.00407 24.863 8.595 24.9278 9.40248 24.7136C10.2124 24.4988 11.1656 24.0195 12.2014 23.2759ZM7.17546 25.2795C9.85024 26.7656 15.2141 22.9147 19.1559 16.6782C23.0977 10.4416 24.1248 4.18117 21.4501 2.69504C18.7753 1.2089 13.4115 5.05985 9.46963 11.2964C5.52781 17.5329 4.50067 23.7934 7.17546 25.2795Z" fill="#030303"/>
  <path fill-rule="evenodd" clip-rule="evenodd" d="M21.853 20.2545C21.4778 17.8381 20.3065 14.7961 18.4009 11.7251C16.4954 8.65413 14.2538 6.19587 12.1988 4.69569C11.1695 3.94425 10.2205 3.45779 9.41241 3.23684C8.6068 3.01656 8.01533 3.0769 7.59492 3.30621C7.17451 3.53552 6.82622 3.98777 6.63227 4.75325C6.43771 5.52108 6.41969 6.53501 6.60764 7.74538C6.98285 10.1618 8.15416 13.2038 10.0597 16.2748C11.9652 19.3458 14.2068 21.804 16.2618 23.3042C17.2911 24.0557 18.2401 24.5421 19.0482 24.7631C19.8538 24.9834 20.4453 24.923 20.8657 24.6937C21.2861 24.4644 21.6344 24.0121 21.8284 23.2467C22.0229 22.4788 22.0409 21.4649 21.853 20.2545ZM21.2703 25.3458C23.9578 23.8799 22.9845 17.6119 19.0964 11.3458C15.2083 5.07965 9.8778 1.18828 7.19032 2.65415C4.50285 4.12003 5.47613 10.388 9.3642 16.6542C13.2523 22.9203 18.5828 26.8116 21.2703 25.3458Z" fill="#030303"/>
  <path fill-rule="evenodd" clip-rule="evenodd" d="M23.5993 10.9618C21.1829 10.0508 17.7894 9.47035 14 9.47035C10.2106 9.47035 6.8171 10.0508 4.40069 10.9618C3.19031 11.4182 2.26462 11.9426 1.65457 12.4864C1.0464 13.0285 0.804597 13.5382 0.804597 13.9942C0.804597 14.4502 1.0464 14.9599 1.65457 15.502C2.26462 16.0458 3.19031 16.5703 4.40069 17.0266C6.8171 17.9376 10.2106 18.5181 14 18.5181C17.7894 18.5181 21.1829 17.9376 23.5993 17.0266C24.8097 16.5703 25.7354 16.0458 26.3454 15.502C26.9536 14.9599 27.1954 14.4502 27.1954 13.9942C27.1954 13.5382 26.9536 13.0285 26.3454 12.4864C25.7354 11.9426 24.8097 11.4182 23.5993 10.9618ZM28 13.9942C28 11.0791 21.732 8.71598 14 8.71598C6.26801 8.71598 -6.13907e-07 11.0791 -3.95486e-07 13.9942C-1.77065e-07 16.9093 6.26801 19.2725 14 19.2725C21.732 19.2725 28 16.9093 28 13.9942Z" fill="#030303"/>
  <path fill-rule="evenodd" clip-rule="evenodd" d="M14.2798 15.4626C15.1561 15.4626 15.8664 14.7966 15.8664 13.9751C15.8664 13.1535 15.1561 12.4875 14.2798 12.4875C13.4036 12.4875 12.6933 13.1535 12.6933 13.9751C12.6933 14.7966 13.4036 15.4626 14.2798 15.4626ZM14.2798 16.217C15.6004 16.217 16.671 15.2132 16.671 13.9751C16.671 12.7369 15.6004 11.7332 14.2798 11.7332C12.9592 11.7332 11.8887 12.7369 11.8887 13.9751C11.8887 15.2132 12.9592 16.217 14.2798 16.217Z" fill="#030303"/>
</symbol>
<symbol id="telegram"  xmlns="http://www.w3.org/2000/svg" viewBox="0 0 29 22" fill="none">
  <path d="M26.0593 0.769931L1.80681 9.12664C0.576632 9.55049 0.596889 10.192 1.85164 10.5523L7.30023 11.9596L10.1642 19.3523C10.5988 20.4743 11.7469 20.7334 12.7155 19.9285L16.3593 16.9001L21.4798 20.622C22.5203 21.3504 23.5853 20.9932 23.8466 19.8285L27.8204 2.11711C28.0817 0.952382 27.2893 0.346228 26.0593 0.769931Z"  stroke-width="0.876374" stroke-miterlimit="10" stroke-linecap="round" stroke-linejoin="round"/>
  <path d="M7.37341 11.9256L21.9684 5.19513L12.6077 14.1733L10.9516 20.2278"  stroke-width="0.876374" stroke-miterlimit="10" stroke-linecap="round" stroke-linejoin="round"/>
  <path d="M12.6519 14.2052L21.4354 20.5894"  stroke-width="0.876374" stroke-miterlimit="10" stroke-linecap="round" stroke-linejoin="round"/>
</symbol>
</svg>