<svg
  aria-hidden="true"
  style="position: absolute; width: 0; height: 0; overflow: hidden;"
  version="1.1"
  xmlns="http://www.w3.org/2000/svg"
  xmlns:xlink="http://www.w3.org/1999/xlink"
>
  <defs>  
<symbol id="burger-menu" viewBox="0 0 29 20">
<svg xmlns="http://www.w3.org/2000/svg" width="29" height="20" viewBox="0 0 29 20" fill="none">
<path d="M22 7H1" stroke="white" stroke-width="2" stroke-linecap="round" stroke-linejoin="round"/>
<path d="M28 1H1" stroke="white" stroke-width="2" stroke-linecap="round" stroke-linejoin="round"/>
<path d="M28 13H1" stroke="white" stroke-width="2" stroke-linecap="round" stroke-linejoin="round"/>
<path d="M22 19H1" stroke="white" stroke-width="2" stroke-linecap="round" stroke-linejoin="round"/>
</svg>
</symbol>
<symbol id="phone" viewBox="0 0 23 23">
<svg xmlns="http://www.w3.org/2000/svg" width="23" height="23" viewBox="0 0 23 23" fill="none">
<path d="M13.9381 5C14.9149 5.19057 15.8125 5.66826 16.5162 6.37194C17.2199 7.07561 17.6976 7.97326 17.8881 8.95M13.9381 1C15.9674 1.22544 17.8597 2.13417 19.3044 3.57701C20.749 5.01984 21.6601 6.91101 21.8881 8.94M20.8881 16.92V19.92C20.8892 20.1985 20.8322 20.4742 20.7206 20.7293C20.6091 20.9845 20.4454 21.2136 20.2402 21.4019C20.035 21.5901 19.7927 21.7335 19.5289 21.8227C19.265 21.9119 18.9855 21.9451 18.7081 21.92C15.631 21.5856 12.6751 20.5341 10.0781 18.85C7.66194 17.3147 5.61345 15.2662 4.07812 12.85C2.38809 10.2412 1.33636 7.27099 1.00812 4.18C0.983127 3.90347 1.01599 3.62476 1.10462 3.36162C1.19324 3.09849 1.33569 2.85669 1.52288 2.65162C1.71008 2.44655 1.93792 2.28271 2.19191 2.17052C2.44589 2.05833 2.72046 2.00026 2.99812 2H5.99812C6.48342 1.99522 6.95391 2.16708 7.32188 2.48353C7.68985 2.79999 7.93019 3.23945 7.99812 3.72C8.12474 4.68007 8.35957 5.62273 8.69812 6.53C8.83266 6.88792 8.86178 7.27691 8.78202 7.65088C8.70227 8.02485 8.51698 8.36811 8.24812 8.64L6.97812 9.91C8.40167 12.4135 10.4746 14.4864 12.9781 15.91L14.2481 14.64C14.52 14.3711 14.8633 14.1858 15.2372 14.1061C15.6112 14.0263 16.0002 14.0555 16.3581 14.19C17.2654 14.5286 18.2081 14.7634 19.1681 14.89C19.6539 14.9585 20.0975 15.2032 20.4146 15.5775C20.7318 15.9518 20.9003 16.4296 20.8881 16.92Z" stroke="white" stroke-width="2" stroke-linecap="round" stroke-linejoin="round"/>
</svg>
</symbol>
<symbol id="dev-symbol" viewBox="0 0 150 119">
<svg xmlns="http://www.w3.org/2000/svg" width="150" height="119" viewBox="0 0 150 119" fill="none">
<path d="M81.1651 10.2418C77.4628 9.75455 74.1255 12.3722 73.6591 16.0435L62.7719 100.218C62.3055 103.89 64.9976 106.782 68.5736 107.724C72.2375 108.704 75.7624 107.045 76.0796 101.923L86.9668 17.7479C87.4383 14.1025 84.8415 10.7342 81.1651 10.2418Z" fill="#878382" fill-opacity="0.5"/>
<path d="M136.635 41.1708L99.561 26.4022C96.1163 25.0301 92.2183 26.7076 90.8462 30.1523C89.474 33.5969 91.1516 37.495 94.5962 38.8671L122.009 49.7916L100.731 70.238C98.0572 72.8067 98.2265 76.8382 100.54 79.7235C102.89 82.6556 106.544 82.4795 110.026 79.9143L138.8 52.2414C140.454 50.6527 141.163 48.3606 140.727 46.1309C140.286 43.8753 138.74 42.0243 136.635 41.1708Z" fill="#878382" fill-opacity="0.5"/>
<path d="M55.1785 79.1463L27.7662 68.2217L49.0436 47.7754C51.7175 45.2067 51.803 40.9638 49.2343 38.2899C46.6656 35.6159 42.4228 35.5304 39.7488 38.0991L10.9698 65.746C9.31546 67.3347 8.58031 69.6319 9.01635 71.8616C9.45239 74.0912 11.0038 75.9682 13.1038 76.7957L50.1828 91.5903C55.9523 93.2884 57.8073 90.7991 58.8976 87.8402C60.2128 84.3798 58.5922 80.4975 55.1785 79.1463Z" fill="#878382" fill-opacity="0.5"/>
</svg>
</symbol>
<symbol id="social-linkedin" viewBox="0 0 26 26">
<svg xmlns="http://www.w3.org/2000/svg" width="26" height="26" viewBox="0 0 26 26" fill="none">
<path d="M17.8 8.57886C19.7095 8.57886 21.5409 9.37735 22.8911 10.7987C24.2414 12.22 25 14.1477 25 16.1578V24.9999H20.2V16.1578C20.2 15.4878 19.9471 14.8452 19.497 14.3714C19.0469 13.8977 18.4365 13.6315 17.8 13.6315C17.1635 13.6315 16.553 13.8977 16.1029 14.3714C15.6528 14.8452 15.4 15.4878 15.4 16.1578V24.9999H10.6V16.1578C10.6 14.1477 11.3585 12.22 12.7088 10.7987C14.0591 9.37735 15.8904 8.57886 17.8 8.57886Z" stroke="white" stroke-width="2" stroke-linecap="round" stroke-linejoin="round"/>
<path d="M5.8 9.84204H1V24.9999H5.8V9.84204Z" stroke="white" stroke-width="2" stroke-linecap="round" stroke-linejoin="round"/>
<path d="M3.4 6.05263C4.72548 6.05263 5.8 4.92156 5.8 3.52632C5.8 2.13107 4.72548 1 3.4 1C2.07452 1 1 2.13107 1 3.52632C1 4.92156 2.07452 6.05263 3.4 6.05263Z" stroke="white" stroke-width="2" stroke-linecap="round" stroke-linejoin="round"/>
</svg>
</symbol>
<symbol id="social-github" viewBox="0 0 26 26">
<svg xmlns="http://www.w3.org/2000/svg" width="26" height="26" viewBox="0 0 26 26" fill="none">
<path d="M9.61538 21.5758C3.46154 23.2879 3.46154 18.7223 1 18.1516M18.2308 25V20.5828C18.2769 20.0385 18.1976 19.4914 17.9982 18.9777C17.7987 18.4641 17.4836 17.9957 17.0738 17.6037C20.9385 17.2042 25 15.846 25 9.61392C24.9997 8.02032 24.3387 6.48785 23.1538 5.33366C23.7149 3.93945 23.6752 2.39838 23.0431 1.03058C23.0431 1.03058 21.5908 0.631091 18.2308 2.71986C15.4099 2.01084 12.4363 2.01084 9.61538 2.71986C6.25538 0.631091 4.80308 1.03058 4.80308 1.03058C4.17092 2.39838 4.13125 3.93945 4.69231 5.33366C3.49862 6.49641 2.83695 8.04274 2.84615 9.64816C2.84615 15.8346 6.90769 17.1928 10.7723 17.638C10.3674 18.026 10.0551 18.4888 9.85576 18.9961C9.65644 19.5035 9.57453 20.0441 9.61538 20.5828V25" stroke="white" stroke-width="2" stroke-linecap="round" stroke-linejoin="round"/>
</svg>
</symbol>
<symbol id="social-telegram" viewBox="0 0 26 23">
<svg xmlns="http://www.w3.org/2000/svg" width="26" height="23" viewBox="0 0 26 23" fill="none">
<path d="M23.3886 1.13319L1.80934 9.3707C0.714751 9.78851 0.732775 10.4208 1.84922 10.776L6.69726 12.1632L9.24559 19.4505C9.63227 20.5565 10.6538 20.8119 11.5156 20.0185L14.7578 17.0333L19.3139 20.7021C20.2398 21.4201 21.1874 21.068 21.4199 19.9199L24.9556 2.46115C25.1882 1.31304 24.4831 0.715532 23.3886 1.13319Z" stroke="white" stroke-width="2" stroke-miterlimit="10" stroke-linecap="round" stroke-linejoin="round"/>
<path d="M6.76239 12.1297L19.7487 5.49525L11.4197 14.3454L9.94617 20.3135" stroke="white" stroke-width="2" stroke-miterlimit="10" stroke-linecap="round" stroke-linejoin="round"/>
<path d="M11.459 14.3773L19.2744 20.6704" stroke="white" stroke-width="2" stroke-miterlimit="10" stroke-linecap="round" stroke-linejoin="round"/>
</svg>
</symbol>
<symbol id="ring" viewBox="0 0 86 87">
<svg xmlns="http://www.w3.org/2000/svg" width="86" height="87" viewBox="0 0 86 87" fill="none">
<ellipse cx="43" cy="43.102" rx="43" ry="43.102" fill="#E1E1E1"/>
</svg>
<symbol id="skills-html" viewBox="0 0 45 51">
<svg xmlns="http://www.w3.org/2000/svg" width="45" height="51" viewBox="0 0 45 51" fill="none">
<path fill-rule="evenodd" clip-rule="evenodd" d="M0.218229 0.305703C0.374876 0.138105 0.595749 0.0427246 0.827208 0.0427246H44.1728C44.403 0.0427246 44.6228 0.137091 44.7794 0.303131C44.9359 0.469171 45.015 0.691864 44.9976 0.917658L44.3409 9.46403C44.3083 9.88838 43.9487 10.2163 43.516 10.2163H11.6644L12.1961 17.1355H42.8593C43.0907 17.1355 43.3115 17.2308 43.4681 17.3983C43.6247 17.5658 43.7029 17.7901 43.6836 18.0169L41.4319 44.4921C41.4031 44.8309 41.1631 45.1164 40.8301 45.2079L22.9102 50.1313C22.765 50.1712 22.6114 50.1713 22.4662 50.1316L4.45242 45.2081C4.11685 45.1164 3.87563 44.8278 3.84909 44.4862L2.81706 31.2022C2.79951 30.9763 2.87851 30.7534 3.03506 30.5872C3.19161 30.4211 3.41152 30.3266 3.64186 30.3266H12.6487C13.1056 30.3266 13.4759 30.6909 13.4759 31.1402V37.0327L22.6796 39.6728L31.2993 37.0271L32.1908 27.9593H3.07893C2.64899 27.9593 2.29073 27.6354 2.25464 27.214L0.00292252 0.924638C-0.0165077 0.697785 0.0615826 0.473301 0.218229 0.305703ZM1.72703 1.66995L3.83938 26.3321H33.1018C33.3351 26.3321 33.5575 26.4289 33.7143 26.5988C33.8711 26.7686 33.9477 26.9957 33.9252 27.224L32.8932 37.7212C32.8611 38.0469 32.6338 38.3221 32.3162 38.4196L22.9341 41.2993C22.7786 41.347 22.6123 41.3485 22.456 41.3037L12.4171 38.424C12.0642 38.3227 11.8215 38.0045 11.8215 37.6429V31.9538H4.53468L5.45448 43.7931L22.6871 48.5031L39.8312 43.7928L41.96 18.7627H11.4291C10.9964 18.7627 10.6368 18.4347 10.6042 18.0104L9.94745 9.46403C9.93009 9.23823 10.0092 9.01554 10.1657 8.8495C10.3223 8.68346 10.5421 8.58909 10.7723 8.58909H42.749L43.2807 1.66995H1.72703Z" fill="#030303"/>
</svg>
</symbol>
<symbol id="skills-css" viewBox="0 0 45 51">
<svg xmlns="http://www.w3.org/2000/svg" width="45" height="51" viewBox="0 0 45 51" fill="none">
<path fill-rule="evenodd" clip-rule="evenodd" d="M0.228343 0.303587C0.38572 0.137056 0.604492 0.0427246 0.833335 0.0427246H44.1667C44.4002 0.0427246 44.623 0.140947 44.7808 0.313473C44.9387 0.485998 45.0171 0.716993 44.9969 0.950203L44.253 9.54879C44.2279 9.83853 44.0543 10.0944 43.7946 10.2241L29.7166 17.2611L42.5215 17.7027C42.7514 17.7106 42.9678 17.8135 43.1195 17.9869C43.2711 18.1603 43.3445 18.3888 43.3223 18.6183L40.8115 44.5065C40.7781 44.851 40.5362 45.1392 40.2033 45.2311L22.4422 50.1313C22.2978 50.1712 22.1454 50.1713 22.0009 50.1316L4.14688 45.2314C3.80737 45.1382 3.56289 44.8412 3.53605 44.4894L2.51316 31.083C2.49546 30.8511 2.57505 30.6223 2.73275 30.4516C2.89046 30.281 3.11201 30.184 3.34406 30.184H12.3641C12.8243 30.184 13.1974 30.558 13.1974 31.0193V37.2166L22.2136 39.5846L30.6559 37.2105L31.6198 27.7865H2.87911C2.44234 27.7865 2.07967 27.4484 2.04798 27.0118L1.39705 18.0434C1.37303 17.7125 1.54664 17.3987 1.83938 17.2439L14.9496 10.3119H1.29828C0.855572 10.3119 0.490133 9.96494 0.466173 9.52183L0.0012227 0.923242C-0.0111626 0.694193 0.0709671 0.470118 0.228343 0.303587ZM1.71306 1.71334L2.08767 8.64131H18.3154C18.6985 8.64131 19.0323 8.90312 19.1244 9.27587C19.2164 9.64862 19.0431 10.0363 18.7043 10.2154L3.09885 18.4668L3.65402 26.1159H32.5429C32.7787 26.1159 33.0035 26.216 33.1615 26.3914C33.3195 26.5669 33.396 26.8012 33.3719 27.0364L32.256 37.9464C32.2211 38.2876 31.9816 38.5728 31.6521 38.6655L22.4461 41.2543C22.3036 41.2944 22.153 41.2957 22.0098 41.2581L12.1529 38.6692C11.7864 38.573 11.5308 38.241 11.5308 37.8612V31.8546H4.24356L5.1531 43.7754L22.2205 48.4598L39.2082 43.7729L41.5776 19.3417L26.3769 18.8176C25.9959 18.8044 25.6723 18.5337 25.5913 18.1602C25.5103 17.7867 25.6925 17.4058 26.0337 17.2352L42.6329 8.93803L43.2579 1.71334H1.71306Z" fill="#030303"/>
</svg>
</symbol>
<symbol id="skills-js" viewBox="0 0 45 37">
<svg xmlns="http://www.w3.org/2000/svg" width="45" height="37" viewBox="0 0 45 37" fill="none">
<path fill-rule="evenodd" clip-rule="evenodd" d="M3.33265 36.0031L3.30641 36.0045C2.44125 36.0498 1.55174 35.8259 0.891742 35.1209C0.299673 34.5207 0 33.7616 0 32.9277C0 32.2395 0.234614 31.6147 0.647518 31.0881C1.17587 30.3659 1.97132 30.0835 2.72984 30.0362C2.7301 30.0362 2.73037 30.0362 2.73063 30.0362L4.15485 29.9448C5.45271 29.8419 6.28101 29.4198 6.8221 28.8063C7.38419 28.139 7.7415 27.1515 7.7415 25.6878V3.46079C7.7415 2.62633 7.93899 1.72745 8.60915 1.06079C9.27607 0.397352 10.1471 0.151556 11.0218 0.151556C11.8686 0.151556 12.741 0.383753 13.3888 1.06047C14.081 1.71714 14.302 2.6118 14.302 3.46079V25.7339C14.302 27.6453 13.9648 29.377 13.2409 30.8892L13.2381 30.8951L13.2352 30.9009C12.4959 32.4087 11.3771 33.5947 9.90797 34.4366C8.48171 35.2717 6.78616 35.7285 4.87469 35.8636L3.33265 36.0031ZM4.76366 34.4956C6.5252 34.3726 8.0086 33.9576 9.21386 33.2505C10.45 32.5434 11.3772 31.5596 11.9952 30.2992C12.6133 29.008 12.9224 27.4862 12.9224 25.7339V3.46079C12.9224 2.81519 12.7524 2.33868 12.4124 2.03125C12.1034 1.69308 11.6398 1.524 11.0218 1.524C10.4037 1.524 9.92465 1.69308 9.58471 2.03125C9.27567 2.33868 9.12115 2.81519 9.12115 3.46079V25.6878C9.12115 27.3786 8.70394 28.7159 7.86953 29.6997C7.03511 30.6527 5.82985 31.1907 4.25374 31.3137L2.81669 31.4059C2.32223 31.4367 1.96683 31.6058 1.7505 31.9132C1.50327 32.2206 1.37965 32.5588 1.37965 32.9277C1.37965 33.4196 1.54962 33.8346 1.88957 34.1728C2.19861 34.5109 2.64672 34.6647 3.2339 34.6339L4.76366 34.4956ZM22.9081 34.6215L22.9025 34.6193C21.6223 34.1166 20.4489 33.4753 19.3884 32.6926L19.3855 32.6905L19.3826 32.6883C18.8707 32.3064 18.4372 31.8286 18.1664 31.236L18.1364 31.1704L18.1135 31.1021C17.9264 30.5435 17.8638 29.9555 17.9723 29.362L17.9803 29.318L17.9912 29.2746C18.1283 28.729 18.3725 28.2162 18.7549 27.7814L18.7852 27.747L18.8177 27.7147C19.2871 27.2478 19.8793 26.9639 20.5491 26.9034C21.2804 26.8372 21.9491 27.081 22.5096 27.4241L22.5487 27.448L22.5861 27.4745C23.8534 28.371 25.1949 29.0235 26.6142 29.4402C28.0466 29.83 29.6937 30.0335 31.5677 30.0335C34.2269 30.0335 35.9163 29.5401 36.8911 28.7969C37.9161 28.0084 38.3931 27.0397 38.3931 25.78C38.3931 24.7668 38.055 24.1115 37.44 23.6335L37.4211 23.6189L37.4028 23.6036C36.7158 23.0304 35.3736 22.4553 33.1489 22.0066M33.1479 22.0064L28.3208 21.0368L28.3138 21.0353C25.2701 20.3911 22.8165 19.3117 21.1106 17.6869L21.0997 17.6765L21.0891 17.666C19.3653 15.9512 18.5526 13.704 18.5526 11.0696C18.5526 9.43715 18.8853 7.9192 19.5758 6.54259C20.2514 5.16549 21.1968 3.99382 22.4024 3.03918C23.6017 2.05888 25.0101 1.32248 26.6053 0.81601C28.2126 0.305722 29.9636 0.0593262 31.8459 0.0593262C33.9199 0.0593262 35.8719 0.353544 37.6915 0.955062C39.5455 1.52699 41.2242 2.4039 42.7177 3.58568L42.7251 3.59156L42.7325 3.59754C43.2439 4.01383 43.6399 4.54003 43.8572 5.17681C44.0696 5.76866 44.0997 6.39045 43.9315 7.00378L43.927 7.02047L43.922 7.03703C43.7575 7.5825 43.4534 8.05361 43.0316 8.43082C42.5444 8.89756 41.9363 9.11156 41.3296 9.16278C40.565 9.23036 39.8699 8.94239 39.3049 8.58107L39.263 8.55428L39.2231 8.52456C38.1015 7.68774 36.9621 7.10568 35.8041 6.75741L35.7901 6.75321L35.7762 6.74871C34.6042 6.36911 33.2828 6.17054 31.7995 6.17054C30.2996 6.17054 29.0656 6.3957 28.0643 6.80325C27.1105 7.20385 26.3985 7.77013 25.8811 8.4939C25.4111 9.16338 25.1595 9.95761 25.1595 10.9313C25.1595 12.1055 25.503 12.8876 26.0742 13.4406C26.7266 14.0415 27.9251 14.6013 29.8835 14.9793L29.8949 14.9815L34.7227 15.9974C34.7235 15.9976 34.7243 15.9978 34.7252 15.9979C37.9473 16.6647 40.5165 17.7134 42.2582 19.2602C44.1127 20.8472 45 23.0147 45 25.5956C45 27.1415 44.6806 28.5938 44.0266 29.9312C43.375 31.2634 42.4366 32.4064 41.2334 33.3569L41.2235 33.3647L41.2135 33.3723C40.0069 34.2902 38.5803 34.9742 36.9605 35.4442C35.3295 35.9174 33.5275 36.1447 31.5677 36.1447C30.0365 36.1447 28.5341 36.015 27.0615 35.7546C25.5921 35.4948 24.2084 35.119 22.9137 34.6237L22.9081 34.6215M41.3489 20.2924C39.8655 18.9705 37.5631 17.9867 34.4418 17.3411L29.6208 16.3266C27.5502 15.927 26.0513 15.2967 25.1242 14.4359C24.228 13.5751 23.7799 12.4069 23.7799 10.9313C23.7799 9.70156 24.1044 8.62557 24.7533 7.70329C25.4332 6.75026 26.3604 6.02781 27.5347 5.53593C28.74 5.04404 30.1616 4.7981 31.7995 4.7981C33.4065 4.7981 34.8745 5.0133 36.2033 5.4437C37.5322 5.84335 38.8148 6.50432 40.0509 7.4266C40.4836 7.70328 40.8699 7.82626 41.2098 7.79551C41.5807 7.76477 41.8743 7.6418 42.0906 7.4266C42.3378 7.2114 42.5078 6.95009 42.6005 6.64266C42.6932 6.30449 42.6778 5.96632 42.5542 5.62815C42.4305 5.25924 42.1988 4.93644 41.8588 4.65976C40.499 3.58376 38.9693 2.78445 37.2695 2.26182C35.6007 1.70845 33.7928 1.43177 31.8459 1.43177C30.0843 1.43177 28.4773 1.66234 27.0248 2.12348C25.5723 2.58462 24.3207 3.24559 23.2699 4.10639C22.2192 4.93644 21.4002 5.95095 20.8131 7.14992C20.2259 8.31814 19.9323 9.62471 19.9323 11.0696C19.9323 13.4061 20.6431 15.2814 22.0647 16.6955C23.5172 18.079 25.6959 19.0781 28.6009 19.6929L33.422 20.6613C35.7089 21.1225 37.3313 21.7527 38.2894 22.552C39.2783 23.3206 39.7728 24.3966 39.7728 25.78C39.7728 27.4709 39.0929 28.8389 37.7331 29.8842C36.4042 30.8987 34.3491 31.4059 31.5677 31.4059C29.5899 31.4059 27.8129 31.1907 26.2367 30.7603C24.6606 30.2992 23.1772 29.5767 21.7865 28.593C21.3848 28.347 21.0139 28.2394 20.674 28.2702C20.3341 28.3009 20.0405 28.4393 19.7932 28.6852C19.5769 28.9311 19.4224 29.2386 19.3297 29.6075C19.2679 29.9457 19.2988 30.2992 19.4224 30.6681C19.5769 31.0063 19.8396 31.3137 20.2104 31.5904C21.1685 32.2975 22.2347 32.8816 23.409 33.3427C24.6143 33.8039 25.9123 34.1574 27.3029 34.4033C28.6936 34.6493 30.1152 34.7723 31.5677 34.7723C33.422 34.7723 35.0908 34.5571 36.5742 34.1267C38.0576 33.6963 39.3247 33.0814 40.3754 32.2821C41.4262 31.452 42.2297 30.4683 42.7859 29.3308C43.3422 28.1933 43.6203 26.9482 43.6203 25.5956C43.6203 23.3513 42.8632 21.5836 41.3489 20.2924Z" fill="#030303"/>
</svg>
</symbol>
<symbol id="skills-postman" viewBox="0 0 55 52">
<svg xmlns="http://www.w3.org/2000/svg" width="55" height="52" viewBox="0 0 55 52" fill="none">
<path d="M21.248 27.3919L18.7161 25.0996L15 28.8245L21.248 27.3919Z" stroke="#030303"/>
<path d="M20.7968 29.1091L19 30.9511L22.5936 30.6646L20.7968 29.1091Z" stroke="#030303"/>
<path d="M26.4182 34.3675L24.0905 32.1162L18.0467 33.1805L6 45.3377L10.0428 49.2263L9.34859 45.7061L26.4182 34.3675Z" stroke="#030303"/>
<path d="M8.45215 50.4675L5.0219 47.1519L2 50.0581L8.45215 50.4675Z" stroke="#030303"/>
<path d="M30 31.3454L44.9461 18.083C43.1568 23.8154 38.7252 27.5278 32.3685 33.9242L30 31.3454Z" stroke="#030303"/>
<path d="M40.1193 13.432L25.5407 27.9224L27.3375 29.5597L42.6103 16.1336C44.1213 13.432 42.1203 12.3592 40.1193 13.432Z" stroke="#030303"/>
<path d="M30.9033 13.186L20 23.3375L22.8585 25.9982L38.9889 10.8938C36.3514 9.09621 34.4295 10.3832 30.9033 13.186Z" stroke="#030303"/>
<path d="M44.9121 7.59941C44.9121 7.59941 50.0167 2.72835 50.3433 1.95062C50.6699 1.17289 45.2208 0.148807 42.7477 2.48275C41.2919 4.13277 40.7965 5.22286 41.0734 7.76314C41.6451 10.5466 44.1213 13.1343 49.0774 11.9793L44.9121 7.59941Z" stroke="#030303"/>
<path d="M48 7.5912L52.6554 3.04761C55.6163 5.92607 52.9705 11.1369 51.6344 11.4389C51.2313 11.53 49.157 9.03751 48 7.5912Z" stroke="#030303"/>
</svg>
</symbol>
<symbol id="skills-git" viewBox="0 0 47 48">
<svg xmlns="http://www.w3.org/2000/svg" width="47" height="48" viewBox="0 0 47 48" fill="none">
<path d="M17.1538 40.1618C5.61539 43.3796 5.61538 34.7988 1 33.7262M33.3077 46.5974V38.2955C33.3943 37.2726 33.2456 36.2443 32.8716 35.2789C32.4976 34.3135 31.9068 33.4332 31.1385 32.6965C38.3846 31.9457 46 29.3929 46 17.6801C45.9994 14.685 44.7601 11.8048 42.5385 9.63561C43.5904 7.01526 43.5161 4.1189 42.3308 1.5482C42.3308 1.5482 39.6077 0.797379 33.3077 4.7231C28.0185 3.39055 22.4431 3.39055 17.1538 4.7231C10.8538 0.797379 8.13077 1.5482 8.13077 1.5482C6.94548 4.1189 6.8711 7.01526 7.92308 9.63561C5.68491 11.8209 4.44428 14.7272 4.46154 17.7445C4.46154 29.3715 12.0769 31.9243 19.3231 32.7609C18.5638 33.4902 17.9783 34.3599 17.6046 35.3135C17.2308 36.2671 17.0772 37.2831 17.1538 38.2955V46.5974" stroke="#030303" stroke-width="2" stroke-linecap="round" stroke-linejoin="round"/>
</svg>
</symbol>
<symbol id="skills-figma" viewBox="0 0 35 51">
<svg xmlns="http://www.w3.org/2000/svg" width="35" height="51" viewBox="0 0 35 51" fill="none">
<path fill-rule="evenodd" clip-rule="evenodd" d="M8.78996 16.5639C6.22903 16.439 4.50599 15.4662 3.4385 14.1526C2.35468 12.8189 1.88119 11.0525 1.99015 9.25526C2.21075 5.6166 4.7429 2.23368 8.76915 2.23368H24.983C24.983 2.23368 24.9833 2.23368 24.9833 1.35988L24.983 2.23368C29.6113 2.23368 32.4696 5.75226 32.7445 9.33481C32.8811 11.1149 32.3727 12.8646 31.1582 14.1862C29.9506 15.5002 27.9626 16.4794 24.9712 16.5639H8.78996ZM0.249903 9.14926C0.508728 4.88002 3.55541 0.486084 8.76915 0.486084H24.983C24.983 0.486084 24.9833 0.486084 24.9833 1.35988L24.983 0.486084C30.6414 0.486084 34.1475 4.83174 34.4828 9.20078C34.6513 11.3965 34.0264 13.6445 32.4405 15.3702C30.8491 17.1018 28.3731 18.2188 25.0072 18.3112L24.9952 18.3115H8.74873L8.72834 18.3106C5.72146 18.1693 3.50627 17.0031 2.08676 15.2563C0.680801 13.5262 0.11915 11.306 0.249903 9.14926Z" fill="#030303"/>
<path fill-rule="evenodd" clip-rule="evenodd" d="M16.2665 17.4379V1.36011H18.0099V17.4379H16.2665Z" fill="#030303"/>
<path fill-rule="evenodd" clip-rule="evenodd" d="M8.14203 16.5642H18.0099V34.5644H7.81475L7.73319 34.5487C2.78613 33.5951 0.109409 29.7726 0.0915835 25.8171C0.0737011 21.8489 2.72296 17.8852 8.04051 16.589L8.14203 16.5642ZM8.3528 18.3118C3.84909 19.4499 1.82107 22.7135 1.83502 25.8092C1.84904 28.92 3.91653 31.9984 7.98263 32.8168H16.2664V18.3118H8.3528Z" fill="#030303"/>
<path fill-rule="evenodd" clip-rule="evenodd" d="M0.442809 39.1505C1.33655 36.4155 3.62113 33.889 7.68121 32.8442L8.11471 34.5369C4.61565 35.4373 2.80306 37.5419 2.09965 39.6945C1.37648 41.9075 1.81992 44.1541 2.81745 45.3682L2.84504 45.4018L2.86916 45.438C5.71121 49.6977 11.917 50.2856 15.1961 45.4337L15.1983 45.4304C15.5737 44.8802 15.8766 44.2317 16.067 42.5775C16.2616 40.8876 16.3298 38.2297 16.2666 33.7028L18.0098 33.6783C18.0731 38.2036 18.0079 40.9636 17.799 42.7779C17.5861 44.6266 17.2158 45.5687 16.6385 46.4153C12.6039 52.3832 4.91343 51.5966 1.44359 46.4448C0.0223256 44.6847 -0.42549 41.8076 0.442809 39.1505Z" fill="#030303"/>
<path fill-rule="evenodd" clip-rule="evenodd" d="M25.3324 32.1178C28.8951 32.1178 31.7832 29.2228 31.7832 25.6517C31.7832 22.0805 28.8951 19.1856 25.3324 19.1856C21.7698 19.1856 18.8816 22.0805 18.8816 25.6517C18.8816 29.2228 21.7698 32.1178 25.3324 32.1178ZM25.3324 33.8653C29.858 33.8653 33.5267 30.188 33.5267 25.6517C33.5267 21.1154 29.858 17.438 25.3324 17.438C20.8069 17.438 17.1382 21.1154 17.1382 25.6517C17.1382 30.188 20.8069 33.8653 25.3324 33.8653Z" fill="#030303"/>
</svg>
</symbol>
<symbol id="skills-React" viewBox="0 0 45 49">
<svg xmlns="http://www.w3.org/2000/svg" width="45" height="49" viewBox="0 0 45 49" fill="none">
<path fill-rule="evenodd" clip-rule="evenodd" d="M19.6092 40.4813C22.9325 37.9304 26.5689 33.7359 29.6737 28.4842C32.7785 23.2326 34.7029 18.0211 35.3393 13.8742C35.6581 11.797 35.6431 10.0547 35.3411 8.73293C35.0399 7.4152 34.4864 6.63364 33.814 6.23419C33.1415 5.83474 32.1918 5.72339 30.8941 6.09139C29.5923 6.46052 28.0605 7.28402 26.3959 8.56173C23.0726 11.1126 19.4362 15.3071 16.3314 20.5588C13.2266 25.8105 11.3022 31.0219 10.6658 35.1688C10.347 37.246 10.362 38.9883 10.664 40.3101C10.9652 41.6278 11.5186 42.4094 12.1911 42.8088C12.8636 43.2083 13.8133 43.3196 15.111 42.9516C16.4127 42.5825 17.9446 41.759 19.6092 40.4813ZM11.5319 43.9239C15.8306 46.4774 24.4511 39.8607 30.7861 29.145C37.1212 18.4294 38.772 7.6726 34.4732 5.11911C30.1744 2.56562 21.554 9.18236 15.2189 19.898C8.88387 30.6137 7.23311 41.3704 11.5319 43.9239Z" fill="#030303"/>
<path fill-rule="evenodd" clip-rule="evenodd" d="M35.1207 35.29C34.5177 31.1381 32.6352 25.9113 29.5728 20.6347C26.5104 15.3581 22.9078 11.1343 19.6051 8.5567C17.9508 7.26557 16.4256 6.42972 15.1269 6.05009C13.8322 5.67161 12.8816 5.77528 12.206 6.16929C11.5303 6.56329 10.9706 7.34035 10.6588 8.65561C10.3462 9.9749 10.3172 11.717 10.6193 13.7967C11.2223 17.9486 13.1047 23.1755 16.1672 28.452C19.2296 33.7286 22.8322 37.9524 26.1349 40.53C27.7892 41.8212 29.3143 42.657 30.613 43.0367C31.9078 43.4151 32.8583 43.3115 33.534 42.9174C34.2097 42.5234 34.7694 41.7464 35.0811 40.4311C35.3938 39.1118 35.4228 37.3697 35.1207 35.29ZM34.1842 44.0378C38.5034 41.5191 36.9392 30.7494 30.6905 19.9829C24.4418 9.21642 15.8749 2.53024 11.5557 5.04892C7.23657 7.56759 8.80077 18.3373 15.0495 29.1038C21.2982 39.8703 29.8651 46.5565 34.1842 44.0378Z" fill="#030303"/>
<path fill-rule="evenodd" clip-rule="evenodd" d="M37.9275 19.3234C34.0439 17.7581 28.5901 16.7607 22.5 16.7607C16.4099 16.7607 10.9561 17.7581 7.07253 19.3234C5.12728 20.1075 3.63957 21.0086 2.65914 21.9429C1.68171 22.8744 1.2931 23.7501 1.2931 24.5337C1.2931 25.3172 1.68171 26.1929 2.65914 27.1244C3.63957 28.0587 5.12728 28.9598 7.07253 29.7439C10.9561 31.3093 16.4099 32.3066 22.5 32.3066C28.5901 32.3066 34.0439 31.3093 37.9275 29.7439C39.8727 28.9598 41.3604 28.0587 42.3409 27.1244C43.3183 26.1929 43.7069 25.3172 43.7069 24.5337C43.7069 23.7501 43.3183 22.8744 42.3409 21.9429C41.3604 21.0086 39.8727 20.1075 37.9275 19.3234ZM45 24.5337C45 19.5249 34.9264 15.4645 22.5 15.4645C10.0736 15.4645 -6.13907e-07 19.5249 -3.95486e-07 24.5337C-1.77065e-07 29.5424 10.0736 33.6028 22.5 33.6028C34.9264 33.6028 45 29.5424 45 24.5337Z" fill="#030303"/>
<path fill-rule="evenodd" clip-rule="evenodd" d="M22.9498 27.0566C24.3581 27.0566 25.4997 25.9123 25.4997 24.5007C25.4997 23.0892 24.3581 21.9449 22.9498 21.9449C21.5416 21.9449 20.4 23.0892 20.4 24.5007C20.4 25.9123 21.5416 27.0566 22.9498 27.0566ZM22.9498 28.3528C25.0722 28.3528 26.7928 26.6282 26.7928 24.5007C26.7928 22.3733 25.0722 20.6487 22.9498 20.6487C20.8274 20.6487 19.1069 22.3733 19.1069 24.5007C19.1069 26.6282 20.8274 28.3528 22.9498 28.3528Z" fill="#030303"/>
</svg>
</symbol>
<symbol id="skills-node" viewBox="0 0 55 30">
<svg xmlns="http://www.w3.org/2000/svg" width="55" height="30" viewBox="0 0 55 30" fill="none">
<path fill-rule="evenodd" clip-rule="evenodd" d="M0.681109 28.9676L0.663296 28.948C0.171472 28.4057 0 27.7157 0 27.0358V3.19932C0 2.51941 0.171471 1.82943 0.663297 1.28714C1.14087 0.760566 1.77334 0.509766 2.45885 0.509766C2.92265 0.509766 3.50556 0.58396 3.97393 0.946792C4.32838 1.18711 4.63105 1.54153 4.88944 1.90274L18.2838 19.7939V3.12436C18.2838 2.46652 18.4576 1.78826 18.9649 1.26771C19.4785 0.71406 20.1684 0.509766 20.8548 0.509766C21.524 0.509766 22.202 0.720147 22.6898 1.28841C23.1817 1.80617 23.351 2.4752 23.351 3.12436V27.0733C23.351 27.7166 23.1984 28.3678 22.7668 28.8993C22.3047 29.4749 21.647 29.6879 21.0043 29.6879C20.4929 29.6879 19.9549 29.5866 19.4897 29.2757C19.1262 29.0328 18.8037 28.6924 18.5145 28.3156L18.5101 28.3098L5.10464 10.3626V27.0358C5.10464 27.7157 4.93317 28.4057 4.44135 28.948L4.42353 28.9676L4.40481 28.9864C3.89384 29.4986 3.2303 29.6879 2.57102 29.6879C1.90673 29.6879 1.22157 29.5094 0.699833 28.9864L0.681109 28.9676ZM3.99184 7.01164L19.3966 27.6355C19.6458 27.9603 19.8826 28.1977 20.107 28.3476C20.3313 28.4975 20.6304 28.5725 21.0043 28.5725C21.4032 28.5725 21.7023 28.4475 21.9017 28.1977C22.126 27.9228 22.2382 27.548 22.2382 27.0733V3.12436C22.2382 2.64962 22.1136 2.28733 21.8643 2.03747C21.64 1.76263 21.3035 1.62521 20.8548 1.62521C20.3812 1.62521 20.0197 1.76263 19.7705 2.03747C19.5212 2.28733 19.3966 2.64962 19.3966 3.12436V23.1387L3.99184 2.56217C3.74257 2.21237 3.51823 1.97501 3.31882 1.85008C3.14433 1.70016 2.85767 1.62521 2.45885 1.62521C2.06002 1.62521 1.73597 1.76263 1.4867 2.03747C1.23743 2.31232 1.1128 2.6996 1.1128 3.19932V27.0358C1.1128 27.5355 1.23743 27.9228 1.4867 28.1977C1.73597 28.4475 2.09741 28.5725 2.57102 28.5725C3.0197 28.5725 3.36867 28.4475 3.61794 28.1977C3.86721 27.9228 3.99184 27.5355 3.99184 27.0358V7.01164ZM26.6639 29.6478L26.6427 29.6489C25.9449 29.6857 25.2275 29.5038 24.6951 28.9308C24.2175 28.443 23.9758 27.826 23.9758 27.1483C23.9758 26.5889 24.1651 26.0811 24.4981 25.6532C24.9243 25.0662 25.5658 24.8367 26.1776 24.7982C26.1778 24.7982 26.1781 24.7982 26.1783 24.7982L27.3271 24.7239C28.3739 24.6403 29.042 24.2973 29.4784 23.7987C29.9318 23.2563 30.22 22.4538 30.22 21.2641V3.19932C30.22 2.52111 30.3793 1.79056 30.9198 1.24874C31.4577 0.709534 32.1603 0.509766 32.8658 0.509766C33.5489 0.509766 34.2525 0.698482 34.775 1.24848C35.3333 1.78218 35.5116 2.50931 35.5116 3.19932V21.3016C35.5116 22.8551 35.2396 24.2624 34.6557 25.4915L34.6534 25.4963L34.6511 25.501C34.0547 26.7265 33.1523 27.6904 31.9673 28.3747C30.817 29.0533 29.4494 29.4246 27.9077 29.5344L26.6639 29.6478ZM27.8181 28.4225C29.2389 28.3226 30.4354 27.9853 31.4076 27.4106C32.4046 26.8359 33.1524 26.0364 33.651 25.012C34.1495 23.9626 34.3988 22.7258 34.3988 21.3016V3.19932C34.3988 2.67461 34.2617 2.28733 33.9875 2.03747C33.7382 1.76263 33.3643 1.62521 32.8658 1.62521C32.3672 1.62521 31.9809 1.76263 31.7067 2.03747C31.4574 2.28733 31.3328 2.67461 31.3328 3.19932V21.2641C31.3328 22.6383 30.9963 23.7252 30.3232 24.5247C29.6502 25.2993 28.6781 25.7366 27.4068 25.8365L26.2477 25.9115C25.8489 25.9364 25.5622 26.0739 25.3878 26.3237C25.1883 26.5736 25.0886 26.8484 25.0886 27.1483C25.0886 27.548 25.2257 27.8853 25.4999 28.1602C25.7492 28.435 26.1106 28.56 26.5842 28.535L27.8181 28.4225ZM42.9695 29.3193L42.9668 29.3187C41.7097 29.0107 40.5381 28.4784 39.4568 27.7281L39.4545 27.7264L39.4521 27.7248C39.0766 27.4613 38.7493 27.114 38.5499 26.6643L38.5414 26.6451L38.5336 26.6256C38.3787 26.2375 38.3 25.8149 38.3486 25.376L38.354 25.3279L38.3634 25.2804C38.4466 24.8635 38.6224 24.4711 38.9088 24.1361L38.9366 24.1036L38.9669 24.0733C39.2915 23.7479 39.7025 23.5239 40.1814 23.4595C40.7227 23.364 41.2346 23.4951 41.6722 23.7145L41.716 23.7364L41.7578 23.7622C42.6537 24.3148 43.4871 24.6897 44.2596 24.9069C45.0945 25.1091 45.9102 25.2083 46.7083 25.2083C48.023 25.2083 48.8208 24.9602 49.2712 24.6332C49.7032 24.3197 49.8954 23.9445 49.8954 23.4004C49.8954 22.9828 49.7697 22.7638 49.581 22.6045L49.5682 22.5937L49.5557 22.5826C49.2892 22.3436 48.7582 22.0737 47.8158 21.8664L44.4197 21.1182C42.7264 20.767 41.3196 20.1326 40.3379 19.1169L40.3316 19.1103L40.3253 19.1036C39.3529 18.064 38.9027 16.7383 38.9027 15.23C38.9027 13.9065 39.2437 12.7085 39.9718 11.6931L39.9736 11.6906L39.9755 11.6881C40.7098 10.676 41.7185 9.9209 42.9509 9.40379C44.1855 8.88574 45.5832 8.64266 47.1196 8.64266C48.3128 8.64266 49.4529 8.80515 50.5343 9.13684C51.6549 9.44791 52.6729 9.95638 53.5793 10.6618C53.9676 10.941 54.2832 11.3205 54.4457 11.8065C54.6287 12.2583 54.6434 12.7331 54.5156 13.1881C54.4122 13.6185 54.1922 13.9907 53.8889 14.2947L53.8587 14.325L53.8262 14.3529C53.4632 14.6647 53.0315 14.8327 52.5771 14.8782C52.0142 14.9347 51.5053 14.7534 51.0837 14.4845L51.0738 14.4781L51.0639 14.4716C50.3997 14.0277 49.7419 13.7175 49.0901 13.5278L49.0744 13.5232L49.0588 13.5182C48.387 13.3009 47.7419 13.1972 47.1196 13.1972C45.8433 13.1972 45.064 13.4528 44.614 13.795C44.1648 14.1365 43.9699 14.5341 43.9699 15.0801C43.9699 15.5163 44.0989 15.7967 44.317 16.0154C44.5525 16.2514 45.0139 16.5099 45.8528 16.687C45.853 16.687 45.8531 16.687 45.8532 16.687L49.2574 17.3995L49.2608 17.4002C50.9837 17.7722 52.4121 18.3963 53.415 19.3638C54.4996 20.3592 55 21.7004 55 23.2505C55 25.2529 54.1722 26.8988 52.5651 28.0842C50.9976 29.2403 48.9851 29.7629 46.6335 29.7629C45.4203 29.7629 44.1993 29.6141 42.9722 29.32L42.9695 29.3193ZM52.6533 20.1772C51.8557 19.4026 50.6467 18.8405 49.0265 18.4907L45.624 17.7786C44.6768 17.5787 43.9788 17.2539 43.5301 16.8041C43.0815 16.3544 42.8571 15.7797 42.8571 15.0801C42.8571 14.1806 43.2186 13.456 43.9414 12.9063C44.6643 12.3566 45.7237 12.0818 47.1196 12.0818C47.8674 12.0818 48.6277 12.2067 49.4004 12.4566C50.1731 12.6814 50.9334 13.0437 51.6812 13.5435C51.9554 13.7184 52.2171 13.7933 52.4664 13.7683C52.7156 13.7433 52.9275 13.6559 53.102 13.506C53.2765 13.3311 53.3887 13.1312 53.4385 12.9063C53.5133 12.6565 53.5008 12.4191 53.4011 12.1942C53.3263 11.9444 53.1643 11.732 52.9151 11.5571C52.1174 10.9324 51.22 10.4827 50.223 10.2078C49.2508 9.90802 48.2164 9.7581 47.1196 9.7581C45.6988 9.7581 44.4524 9.98298 43.3806 10.4327C42.3087 10.8825 41.4737 11.5196 40.8754 12.3441C40.3021 13.1437 40.0155 14.1056 40.0155 15.23C40.0155 16.5043 40.3894 17.5412 41.1372 18.3407C41.9099 19.1403 43.0815 19.7025 44.6518 20.0273L48.0543 20.7769C49.0763 21.0017 49.8241 21.3266 50.2978 21.7513C50.7714 22.1511 51.0082 22.7008 51.0082 23.4004C51.0082 24.2999 50.6467 25.012 49.9239 25.5367C49.201 26.0614 48.1291 26.3237 46.7083 26.3237C45.8109 26.3237 44.9011 26.2113 43.9788 25.9864C43.0815 25.7366 42.1467 25.3118 41.1746 24.7121C40.8754 24.5622 40.6012 24.5123 40.352 24.5622C40.1276 24.5872 39.9282 24.6872 39.7537 24.8621C39.6042 25.037 39.5045 25.2493 39.4546 25.4992C39.4297 25.7241 39.4671 25.9614 39.5668 26.2113C39.6665 26.4362 39.841 26.6361 40.0902 26.811C41.0624 27.4856 42.1093 27.9603 43.231 28.2351C44.3776 28.51 45.5118 28.6474 46.6335 28.6474C48.8271 28.6474 50.5844 28.1602 51.9055 27.1857C53.2266 26.2113 53.8872 24.8995 53.8872 23.2505C53.8872 21.9512 53.4759 20.9268 52.6533 20.1772Z" fill="#030303"/>
</svg>
</symbol>
</symbol>
  </defs>
</svg>