<svg>
<symbol id="burger" xmlns="http://www.w3.org/2000/svg" width="29" height="20" fill="none"><path d="M22 7H1M28 1H1M28 13H1M22 19H1" stroke="#fff" stroke-width="2" stroke-linecap="round" stroke-linejoin="round"/></symbol>
<symbol id="phone" xmlns="http://www.w3.org/2000/svg" width="23" height="23" fill="none"><path d="M13.938 5a5 5 0 0 1 3.95 3.95M13.938 1a9 9 0 0 1 7.95 7.94m-1 7.98v3a2 2 0 0 1-2.18 2 19.791 19.791 0 0 1-8.63-3.07 19.5 19.5 0 0 1-6-6 19.79 19.79 0 0 1-3.07-8.67A2 2 0 0 1 2.998 2h3a2 2 0 0 1 2 1.72c.127.96.362 1.903.7 2.81a2 2 0 0 1-.45 2.11l-1.27 1.27a16 16 0 0 0 6 6l1.27-1.27a2 2 0 0 1 2.11-.45c.907.339 1.85.573 2.81.7a2 2 0 0 1 1.72 2.03Z" stroke="#fff" stroke-width="2" stroke-linecap="round" stroke-linejoin="round"/></symbol>
<symbol id="dev-symbol" xmlns="http://www.w3.org/2000/svg" width="86" height="68" fill="none"><path d="M46.482 5.865a3.826 3.826 0 0 0-4.299 3.323L35.95 57.394c-.268 2.102 1.274 3.758 3.322 4.298 2.098.561 4.117-.389 4.299-3.322l6.234-48.206c.27-2.088-1.217-4.017-3.322-4.299ZM78.249 23.578 57.017 15.12a3.84 3.84 0 0 0-4.99 2.148 3.84 3.84 0 0 0 2.147 4.99l15.698 6.257-12.185 11.71c-1.531 1.47-1.434 3.779-.11 5.431 1.347 1.68 3.439 1.579 5.433.11l16.478-15.848a3.82 3.82 0 0 0 1.104-3.5 3.862 3.862 0 0 0-2.343-2.84ZM31.6 45.326 15.9 39.069 28.087 27.36a3.84 3.84 0 0 0 .109-5.432 3.84 3.84 0 0 0-5.432-.11L6.282 37.653a3.833 3.833 0 0 0-1.118 3.502 3.835 3.835 0 0 0 2.34 2.826l21.235 8.472c3.304.973 4.366-.453 4.99-2.147.754-1.982-.174-4.205-2.13-4.98Z" fill="#878382" fill-opacity=".5"/></symbol>
</svg>