<svg aria-hidden="true" style="position: absolute; width: 0; height: 0; overflow: hidden;" version="1.1" xmlns="http://www.w3.org/2000/svg" xmlns:xlink="http://www.w3.org/1999/xlink">
<defs>
<symbol id="burger" viewBox="0 0 29 20">
<svg xmlns="http://www.w3.org/2000/svg" width="29" height="20" viewBox="0 0 29 20" fill="none">
<path d="M22 7H1" stroke="white" stroke-width="2" stroke-linecap="round" stroke-linejoin="round"/>
<path d="M28 1H1" stroke="white" stroke-width="2" stroke-linecap="round" stroke-linejoin="round"/>
<path d="M28 13H1" stroke="white" stroke-width="2" stroke-linecap="round" stroke-linejoin="round"/>
<path d="M22 19H1" stroke="white" stroke-width="2" stroke-linecap="round" stroke-linejoin="round"/>
</svg>
</symbol>
<symbol id="phone" viewBox="0 0 23 23">
<svg xmlns="http://www.w3.org/2000/svg" width="23" height="23" viewBox="0 0 23 23" fill="none">
<path d="M13.9381 5C14.9149 5.19057 15.8125 5.66826 16.5162 6.37194C17.2199 7.07561 17.6976 7.97326 17.8881 8.95M13.9381 1C15.9674 1.22544 17.8597 2.13417 19.3044 3.57701C20.749 5.01984 21.6601 6.91101 21.8881 8.94M20.8881 16.92V19.92C20.8892 20.1985 20.8322 20.4742 20.7206 20.7293C20.6091 20.9845 20.4454 21.2136 20.2402 21.4019C20.035 21.5901 19.7927 21.7335 19.5289 21.8227C19.265 21.9119 18.9855 21.9451 18.7081 21.92C15.631 21.5856 12.6751 20.5341 10.0781 18.85C7.66194 17.3147 5.61345 15.2662 4.07812 12.85C2.38809 10.2412 1.33636 7.27099 1.00812 4.18C0.983127 3.90347 1.01599 3.62476 1.10462 3.36162C1.19324 3.09849 1.33569 2.85669 1.52288 2.65162C1.71008 2.44655 1.93792 2.28271 2.19191 2.17052C2.44589 2.05833 2.72046 2.00026 2.99812 2H5.99812C6.48342 1.99522 6.95391 2.16708 7.32188 2.48353C7.68985 2.79999 7.93019 3.23945 7.99812 3.72C8.12474 4.68007 8.35957 5.62273 8.69812 6.53C8.83266 6.88792 8.86178 7.27691 8.78202 7.65088C8.70227 8.02485 8.51698 8.36811 8.24812 8.64L6.97812 9.91C8.40167 12.4135 10.4746 14.4864 12.9781 15.91L14.2481 14.64C14.52 14.3711 14.8633 14.1858 15.2372 14.1061C15.6112 14.0263 16.0002 14.0555 16.3581 14.19C17.2654 14.5286 18.2081 14.7634 19.1681 14.89C19.6539 14.9585 20.0975 15.2032 20.4146 15.5775C20.7318 15.9518 20.9003 16.4296 20.8881 16.92Z" stroke="white" stroke-width="2" stroke-linecap="round" stroke-linejoin="round"/>
</svg>
</symbol>
<symbol id="dev-symbol"  viewBox="0 0 86 68">
<svg xmlns="http://www.w3.org/2000/svg" width="86" height="68" viewBox="0 0 86 68" fill="none">
<path d="M46.482 5.86542C44.3618 5.58636 42.4505 7.08546 42.1834 9.18795L35.9485 57.3936C35.6814 59.4961 37.2231 61.1523 39.271 61.6922C41.3693 62.253 43.388 61.3033 43.5696 58.3696L49.8045 10.164C50.0746 8.07638 48.5874 6.14738 46.482 5.86542Z" fill="#878382" fill-opacity="0.5"/>
<path d="M78.2486 23.5779L57.0169 15.1201C55.0443 14.3343 52.8119 15.295 52.0261 17.2677C51.2403 19.2404 52.201 21.4728 54.1737 22.2586L69.8723 28.5149L57.6871 40.2242C56.1557 41.6952 56.2527 44.004 57.5778 45.6564C58.9236 47.3355 61.0158 47.2347 63.01 45.7656L79.4884 29.9178C80.4358 29.008 80.842 27.6953 80.5923 26.4184C80.3397 25.1267 79.4541 24.0667 78.2486 23.5779Z" fill="#878382" fill-opacity="0.5"/>
<path d="M31.5999 45.3258L15.9013 39.0695L28.0865 27.3602C29.6178 25.8891 29.6668 23.4593 28.1957 21.928C26.7247 20.3967 24.2949 20.3477 22.7636 21.8188L6.28225 37.6517C5.33485 38.5615 4.91384 39.8771 5.16356 41.154C5.41327 42.4309 6.30176 43.5058 7.50435 43.9797L28.7389 52.4523C32.043 53.4248 33.1054 51.9992 33.7297 50.3047C34.4829 48.323 33.5548 46.0997 31.5999 45.3258Z" fill="#878382" fill-opacity="0.5"/>
</svg>
</symbol>
</defs>
</svg>