<svg width="0" height="0" style="display: none">

<symbol id="burger"  xmlns="http://www.w3.org/2000/svg" width="29" height="20" fill="none"><path id="burger" d="M22 7H1M28 1H1M28 13H1M22 19H1" stroke="#fff" stroke-width="2" stroke-linecap="round" stroke-linejoin="round"/></symbol>
<symbol id="dev-symbol"  viewBox="0 0 86 68" xmlns="http://www.w3.org/2000/svg" width="76" height="54" fill="none"><path d="M46.482 5.865a3.826 3.826 0 0 0-4.299 3.323L35.95 57.394c-.268 2.102 1.274 3.758 3.322 4.298 2.098.561 4.117-.389 4.299-3.322l6.234-48.206c.27-2.088-1.217-4.017-3.322-4.299ZM78.249 23.578 57.017 15.12a3.84 3.84 0 0 0-4.99 2.148 3.84 3.84 0 0 0 2.147 4.99l15.698 6.257-12.185 11.71c-1.531 1.47-1.434 3.779-.11 5.431 1.347 1.68 3.439 1.579 5.433.11l16.478-15.848a3.82 3.82 0 0 0 1.104-3.5 3.862 3.862 0 0 0-2.343-2.84ZM31.6 45.326 15.9 39.069 28.087 27.36a3.84 3.84 0 0 0 .109-5.432 3.84 3.84 0 0 0-5.432-.11L6.282 37.653a3.833 3.833 0 0 0-1.118 3.502 3.835 3.835 0 0 0 2.34 2.826l21.235 8.472c3.304.973 4.366-.453 4.99-2.147.754-1.982-.174-4.205-2.13-4.98Z" fill="#878382" fill-opacity=".5"/></symbol>

<symbol id="phone"  xmlns="http://www.w3.org/2000/svg" width="18" height="18" viewBox="0 0 20 20" fill="none">
<path d="M12.1492 4.44035C12.9909 4.60425 13.7644 5.01511 14.3708 5.62033C14.9772 6.22556 15.3888 6.99761 15.5531 7.83769M12.1492 1C13.8979 1.19389 15.5286 1.97549 16.7735 3.21645C18.0184 4.45741 18.8035 6.08398 19 7.82909M18.1383 14.6926V17.2728C18.1392 17.5124 18.0901 17.7495 17.9939 17.969C17.8978 18.1884 17.7568 18.3854 17.5799 18.5474C17.4031 18.7093 17.1943 18.8326 16.967 18.9093C16.7396 18.9861 16.4987 19.0146 16.2597 18.993C13.608 18.7054 11.0608 17.8011 8.82292 16.3526C6.74082 15.032 4.97557 13.2701 3.65252 11.192C2.19617 8.94824 1.28985 6.3936 1.00699 3.73508C0.98546 3.49723 1.01378 3.25752 1.09015 3.0312C1.16652 2.80488 1.28927 2.59691 1.45059 2.42054C1.6119 2.24416 1.80824 2.10324 2.02711 2.00675C2.24598 1.91026 2.48258 1.86031 2.72185 1.86009H5.30705C5.72525 1.85598 6.13069 2.00379 6.44778 2.27597C6.76487 2.54815 6.97198 2.92612 7.03051 3.33944C7.13963 4.16518 7.34199 4.97595 7.63373 5.75628C7.74967 6.06413 7.77476 6.39869 7.70603 6.72034C7.63731 7.04198 7.47764 7.33722 7.24595 7.57106L6.15155 8.66337C7.37827 10.8166 9.16456 12.5995 11.322 13.8239L12.4164 12.7316C12.6506 12.5003 12.9465 12.341 13.2687 12.2724C13.591 12.2038 13.9262 12.2288 14.2346 12.3445C15.0164 12.6357 15.8288 12.8377 16.6561 12.9466C17.0747 13.0055 17.457 13.216 17.7303 13.5379C18.0035 13.8598 18.1488 14.2708 18.1383 14.6926Z" stroke="white" stroke-linecap="round" stroke-linejoin="round"/>
</symbol>
</svg>